%TF.GenerationSoftware,KiCad,Pcbnew,9.0.1*%
%TF.CreationDate,2025-08-28T21:03:41+10:00*%
%TF.ProjectId,ae-temp-monitor,61652d74-656d-4702-9d6d-6f6e69746f72,rev?*%
%TF.SameCoordinates,Original*%
%TF.FileFunction,Copper,L2,Bot*%
%TF.FilePolarity,Positive*%
%FSLAX46Y46*%
G04 Gerber Fmt 4.6, Leading zero omitted, Abs format (unit mm)*
G04 Created by KiCad (PCBNEW 9.0.1) date 2025-08-28 21:03:41*
%MOMM*%
%LPD*%
G01*
G04 APERTURE LIST*
%TA.AperFunction,SMDPad,CuDef*%
%ADD10R,7.450000X6.100000*%
%TD*%
%TA.AperFunction,ViaPad*%
%ADD11C,0.500000*%
%TD*%
%TA.AperFunction,ViaPad*%
%ADD12C,0.800000*%
%TD*%
%TA.AperFunction,Conductor*%
%ADD13C,2.000000*%
%TD*%
%TA.AperFunction,Conductor*%
%ADD14C,0.200000*%
%TD*%
%TA.AperFunction,Conductor*%
%ADD15C,0.400000*%
%TD*%
G04 APERTURE END LIST*
D10*
%TO.P,BT2,1,+*%
%TO.N,BATT*%
X166949999Y-80884924D03*
%TO.P,BT2,2,-*%
%TO.N,GND*%
X166949999Y-69784924D03*
%TO.P,BT2,3*%
%TO.N,N/C*%
X111250001Y-69784924D03*
X111250001Y-80884924D03*
%TD*%
D11*
%TO.N,GND*%
X156950000Y-72834924D03*
X146053595Y-73509924D03*
X139289298Y-79174223D03*
X119349999Y-82659925D03*
X140903596Y-79434925D03*
X120600000Y-78759925D03*
X151127687Y-80411064D03*
D12*
X154824999Y-84509924D03*
D11*
X135753596Y-73209925D03*
X143363286Y-84053405D03*
X161737501Y-76459923D03*
X144053594Y-77409925D03*
D12*
X160850000Y-84559924D03*
D11*
X147874576Y-85004844D03*
X137400688Y-84037997D03*
X142153595Y-73509926D03*
X153975000Y-77984924D03*
X140153594Y-71709924D03*
X112600000Y-76584922D03*
X146053595Y-75509926D03*
D12*
X150850000Y-81634925D03*
D11*
X116850000Y-75834925D03*
X148103594Y-71659926D03*
X140990629Y-84037998D03*
X135870019Y-78659592D03*
X160075000Y-77459925D03*
X152433595Y-66734923D03*
D12*
X161550000Y-82209924D03*
D11*
X144053595Y-73509926D03*
X163875000Y-71884925D03*
X142153596Y-75509925D03*
X146053595Y-77409926D03*
X142153596Y-77409926D03*
X144053594Y-75509925D03*
X140153594Y-72909926D03*
%TO.N,Net-(U1-EN{slash}CHIP_PU)*%
X137375000Y-86309925D03*
X136590858Y-77066389D03*
D12*
%TO.N,SCL*%
X123950001Y-79659925D03*
X144949999Y-81760924D03*
X123875000Y-81759924D03*
D11*
X148104922Y-81259968D03*
X146945000Y-86314924D03*
%TO.N,PXL_PWR*%
X135750001Y-74134925D03*
X139600000Y-73934924D03*
%TO.N,BATT*%
X167125000Y-78109924D03*
X167175000Y-79809925D03*
D12*
%TO.N,BATT_DIS*%
X155500000Y-78984923D03*
X160336279Y-79098311D03*
%TD*%
D13*
%TO.N,*%
X110346557Y-70688369D02*
X110346557Y-79981480D01*
D14*
%TO.N,Net-(U1-EN{slash}CHIP_PU)*%
X136590858Y-77066389D02*
X136590858Y-85525783D01*
X136590858Y-85525783D02*
X137375000Y-86309925D01*
%TO.N,SCL*%
X144949999Y-81760924D02*
X144950000Y-81759922D01*
X146945000Y-83989923D02*
X146945000Y-86314924D01*
X123875000Y-81759924D02*
X123875001Y-79659925D01*
X148104922Y-82830001D02*
X146945000Y-83989923D01*
X123875001Y-79659925D02*
X123950001Y-79659925D01*
X145449956Y-81259966D02*
X148104922Y-81259968D01*
X148104922Y-81259968D02*
X148104922Y-82830001D01*
X144950000Y-81759922D02*
X145449956Y-81259966D01*
%TO.N,PXL_PWR*%
X139600000Y-73934924D02*
X135949999Y-73934925D01*
X135949999Y-73934925D02*
X135750001Y-74134925D01*
D15*
%TO.N,BATT_DIS*%
X160336279Y-79098311D02*
X160222892Y-78984923D01*
X160222892Y-78984923D02*
X155500000Y-78984923D01*
%TD*%
%TA.AperFunction,Conductor*%
%TO.N,GND*%
G36*
X170355394Y-63335896D02*
G01*
X170503011Y-63348812D01*
X170516347Y-63350715D01*
X170541920Y-63355802D01*
X170549780Y-63357635D01*
X170678103Y-63392020D01*
X170693439Y-63397226D01*
X170705933Y-63402401D01*
X170710844Y-63404561D01*
X170839862Y-63464725D01*
X170839916Y-63464750D01*
X170858634Y-63475558D01*
X170983569Y-63563040D01*
X171000126Y-63576932D01*
X171107980Y-63684790D01*
X171121873Y-63701348D01*
X171209355Y-63826289D01*
X171220162Y-63845008D01*
X171280330Y-63974043D01*
X171282512Y-63979002D01*
X171287679Y-63991479D01*
X171292889Y-64006831D01*
X171327259Y-64135109D01*
X171329102Y-64143012D01*
X171334183Y-64168558D01*
X171336093Y-64181941D01*
X171349028Y-64329811D01*
X171349500Y-64340617D01*
X171349500Y-72804705D01*
X171329815Y-72871744D01*
X171277011Y-72917499D01*
X171225500Y-72928705D01*
X171198603Y-72928705D01*
X171064540Y-72945642D01*
X170995562Y-72934515D01*
X170943550Y-72887862D01*
X170924999Y-72822620D01*
X170924999Y-70034924D01*
X167199999Y-70034924D01*
X167199999Y-73084924D01*
X169971530Y-73084924D01*
X170001788Y-73093808D01*
X170032507Y-73100953D01*
X170035058Y-73103578D01*
X170038569Y-73104609D01*
X170059212Y-73128433D01*
X170081201Y-73151059D01*
X170081928Y-73154648D01*
X170084324Y-73157413D01*
X170088811Y-73188621D01*
X170095075Y-73219537D01*
X170093747Y-73222947D01*
X170094268Y-73226571D01*
X170081167Y-73255257D01*
X170069725Y-73284646D01*
X170066167Y-73288103D01*
X170065243Y-73290127D01*
X170044414Y-73309243D01*
X170017758Y-73328609D01*
X170013783Y-73331380D01*
X170012058Y-73332532D01*
X170008003Y-73335644D01*
X170005412Y-73337579D01*
X169813202Y-73477228D01*
X169813199Y-73477231D01*
X169771739Y-73516163D01*
X169767236Y-73520390D01*
X169762145Y-73524298D01*
X169747787Y-73538655D01*
X169746343Y-73540012D01*
X169592492Y-73684489D01*
X169550900Y-73734764D01*
X169547168Y-73739274D01*
X169539398Y-73747045D01*
X169522218Y-73769434D01*
X169520745Y-73771215D01*
X169399499Y-73917777D01*
X169399494Y-73917783D01*
X169359934Y-73980117D01*
X169359935Y-73980118D01*
X169356968Y-73984792D01*
X169347632Y-73996960D01*
X169331352Y-74025157D01*
X169329936Y-74027389D01*
X169237268Y-74173412D01*
X169237264Y-74173420D01*
X169202073Y-74248199D01*
X169202074Y-74248200D01*
X169199851Y-74252922D01*
X169190126Y-74269768D01*
X169176898Y-74301700D01*
X169175642Y-74304372D01*
X169110768Y-74442238D01*
X169108354Y-74447369D01*
X169108348Y-74447387D01*
X169079993Y-74534652D01*
X169079992Y-74534651D01*
X169078480Y-74539301D01*
X169069576Y-74560800D01*
X169060546Y-74594499D01*
X169059533Y-74597618D01*
X169014793Y-74735316D01*
X169014792Y-74735321D01*
X168995818Y-74834772D01*
X168995819Y-74834773D01*
X168994963Y-74839257D01*
X168988045Y-74865078D01*
X168983603Y-74898811D01*
X168982936Y-74902313D01*
X168982934Y-74902326D01*
X168958059Y-75032728D01*
X168958057Y-75032742D01*
X168951079Y-75143651D01*
X168950812Y-75147888D01*
X168946928Y-75177394D01*
X168946928Y-75209643D01*
X168946683Y-75213539D01*
X168946683Y-75213544D01*
X168939048Y-75334894D01*
X168939048Y-75334904D01*
X168946683Y-75456254D01*
X168946683Y-75456257D01*
X168946928Y-75460152D01*
X168946928Y-75492406D01*
X168950811Y-75521904D01*
X168951078Y-75526141D01*
X168951079Y-75526149D01*
X168958057Y-75637062D01*
X168958058Y-75637069D01*
X168982934Y-75767474D01*
X168983602Y-75770979D01*
X168988045Y-75804722D01*
X168994968Y-75830559D01*
X168995820Y-75835025D01*
X168995819Y-75835027D01*
X169014791Y-75934476D01*
X169014793Y-75934483D01*
X169059534Y-76072183D01*
X169060543Y-76075288D01*
X169069576Y-76109000D01*
X169078483Y-76130505D01*
X169079991Y-76135144D01*
X169079994Y-76135152D01*
X169108352Y-76222428D01*
X169175649Y-76365440D01*
X169175648Y-76365440D01*
X169176895Y-76368091D01*
X169190126Y-76400032D01*
X169199861Y-76416894D01*
X169202075Y-76421598D01*
X169202075Y-76421599D01*
X169237265Y-76496381D01*
X169237268Y-76496387D01*
X169329946Y-76642426D01*
X169331346Y-76644633D01*
X169347632Y-76672840D01*
X169356974Y-76685014D01*
X169359929Y-76689671D01*
X169359936Y-76689681D01*
X169399481Y-76751994D01*
X169399500Y-76752023D01*
X169520748Y-76898587D01*
X169522201Y-76900343D01*
X169539398Y-76922755D01*
X169547174Y-76930531D01*
X169550905Y-76935041D01*
X169592492Y-76985311D01*
X169746342Y-77129785D01*
X169747753Y-77131110D01*
X169762145Y-77145502D01*
X169767249Y-77149418D01*
X169813159Y-77192531D01*
X169813199Y-77192568D01*
X169813209Y-77192576D01*
X169837775Y-77210424D01*
X170006703Y-77333158D01*
X170012060Y-77337268D01*
X170013518Y-77338109D01*
X170019475Y-77342437D01*
X170043796Y-77360108D01*
X170086460Y-77415439D01*
X170092438Y-77485053D01*
X170059830Y-77546847D01*
X169998990Y-77581202D01*
X169970908Y-77584424D01*
X163200322Y-77584424D01*
X163127263Y-77598956D01*
X163127259Y-77598957D01*
X163044398Y-77654323D01*
X162989032Y-77737184D01*
X162989031Y-77737188D01*
X162974499Y-77810245D01*
X162974499Y-83959602D01*
X162989031Y-84032659D01*
X162989032Y-84032663D01*
X162989033Y-84032664D01*
X163044398Y-84115525D01*
X163127259Y-84170890D01*
X163127263Y-84170891D01*
X163200320Y-84185423D01*
X163200323Y-84185424D01*
X163200325Y-84185424D01*
X170699675Y-84185424D01*
X170699676Y-84185423D01*
X170772739Y-84170890D01*
X170855600Y-84115525D01*
X170910965Y-84032664D01*
X170925499Y-83959598D01*
X170925499Y-77847242D01*
X170929806Y-77832572D01*
X170929169Y-77817298D01*
X170939450Y-77799729D01*
X170945184Y-77780203D01*
X170956735Y-77770193D01*
X170964459Y-77756996D01*
X170982608Y-77747774D01*
X170997988Y-77734448D01*
X171014061Y-77731793D01*
X171026750Y-77725347D01*
X171058814Y-77724403D01*
X171062013Y-77723875D01*
X171063509Y-77724026D01*
X171198615Y-77741095D01*
X171231774Y-77741095D01*
X171238014Y-77741728D01*
X171264797Y-77752634D01*
X171292539Y-77760780D01*
X171296757Y-77765647D01*
X171302725Y-77768078D01*
X171319361Y-77791735D01*
X171338294Y-77813584D01*
X171339891Y-77820928D01*
X171342917Y-77825230D01*
X171343412Y-77837114D01*
X171349500Y-77865095D01*
X171349500Y-86329507D01*
X171349028Y-86340318D01*
X171336238Y-86486460D01*
X171334327Y-86499841D01*
X171328497Y-86529150D01*
X171326654Y-86537054D01*
X171293216Y-86661836D01*
X171288004Y-86677191D01*
X171280983Y-86694142D01*
X171278802Y-86699098D01*
X171220170Y-86824829D01*
X171209363Y-86843547D01*
X171121873Y-86968491D01*
X171107979Y-86985048D01*
X171000130Y-87092895D01*
X170983572Y-87106789D01*
X170858626Y-87194275D01*
X170839908Y-87205081D01*
X170714183Y-87263707D01*
X170709230Y-87265887D01*
X170692272Y-87272911D01*
X170676914Y-87278124D01*
X170552128Y-87311560D01*
X170544224Y-87313403D01*
X170514922Y-87319231D01*
X170501541Y-87321141D01*
X170377492Y-87331994D01*
X170355106Y-87333953D01*
X170344304Y-87334425D01*
X145610417Y-87334425D01*
X145543378Y-87314740D01*
X145497623Y-87261936D01*
X145487679Y-87192778D01*
X145516704Y-87129222D01*
X145541527Y-87107323D01*
X145554753Y-87098484D01*
X145559669Y-87095200D01*
X145650276Y-87004593D01*
X145721465Y-86898051D01*
X145770501Y-86779668D01*
X145783280Y-86715424D01*
X145795500Y-86653995D01*
X145795500Y-86525852D01*
X145770502Y-86400185D01*
X145770501Y-86400184D01*
X145770501Y-86400180D01*
X145721465Y-86281797D01*
X145721464Y-86281796D01*
X145721461Y-86281790D01*
X145650276Y-86175255D01*
X145650273Y-86175251D01*
X145559672Y-86084650D01*
X145559668Y-86084647D01*
X145453133Y-86013462D01*
X145453124Y-86013457D01*
X145334744Y-85964423D01*
X145334738Y-85964421D01*
X145209071Y-85939424D01*
X145209069Y-85939424D01*
X145080931Y-85939424D01*
X145080929Y-85939424D01*
X144955261Y-85964421D01*
X144955255Y-85964423D01*
X144836875Y-86013457D01*
X144836866Y-86013462D01*
X144730331Y-86084647D01*
X144730327Y-86084650D01*
X144639726Y-86175251D01*
X144639723Y-86175255D01*
X144568538Y-86281790D01*
X144568533Y-86281799D01*
X144519499Y-86400179D01*
X144519497Y-86400185D01*
X144494500Y-86525852D01*
X144494500Y-86525855D01*
X144494500Y-86653993D01*
X144494500Y-86653995D01*
X144494499Y-86653995D01*
X144519497Y-86779662D01*
X144519499Y-86779668D01*
X144568533Y-86898048D01*
X144568538Y-86898057D01*
X144639723Y-87004592D01*
X144639726Y-87004596D01*
X144730327Y-87095197D01*
X144730335Y-87095203D01*
X144748473Y-87107323D01*
X144793279Y-87160935D01*
X144801986Y-87230260D01*
X144771832Y-87293287D01*
X144712389Y-87330007D01*
X144679583Y-87334425D01*
X139632934Y-87334425D01*
X139565895Y-87314740D01*
X139520140Y-87261936D01*
X139510196Y-87192778D01*
X139539221Y-87129222D01*
X139564043Y-87107323D01*
X139589669Y-87090200D01*
X139680273Y-86999596D01*
X139680276Y-86999593D01*
X139751465Y-86893051D01*
X139800501Y-86774668D01*
X139813281Y-86710422D01*
X139825500Y-86648995D01*
X139825500Y-86520852D01*
X139800502Y-86395185D01*
X139800501Y-86395184D01*
X139800501Y-86395180D01*
X139751465Y-86276797D01*
X139751464Y-86276796D01*
X139751461Y-86276790D01*
X139680276Y-86170255D01*
X139680273Y-86170251D01*
X139589672Y-86079650D01*
X139589668Y-86079647D01*
X139483133Y-86008462D01*
X139483124Y-86008457D01*
X139364744Y-85959423D01*
X139364738Y-85959421D01*
X139239071Y-85934424D01*
X139239069Y-85934424D01*
X139110931Y-85934424D01*
X139110929Y-85934424D01*
X138985261Y-85959421D01*
X138985255Y-85959423D01*
X138866875Y-86008457D01*
X138866866Y-86008462D01*
X138760331Y-86079647D01*
X138760327Y-86079650D01*
X138669726Y-86170251D01*
X138669723Y-86170255D01*
X138598538Y-86276790D01*
X138598533Y-86276799D01*
X138549499Y-86395179D01*
X138549497Y-86395185D01*
X138524500Y-86520852D01*
X138524500Y-86520855D01*
X138524500Y-86648993D01*
X138524500Y-86648995D01*
X138524499Y-86648995D01*
X138549497Y-86774662D01*
X138549499Y-86774668D01*
X138598533Y-86893048D01*
X138598538Y-86893057D01*
X138669723Y-86999592D01*
X138669726Y-86999596D01*
X138760330Y-87090200D01*
X138785957Y-87107323D01*
X138830762Y-87160935D01*
X138839469Y-87230260D01*
X138809315Y-87293287D01*
X138749872Y-87330007D01*
X138717066Y-87334425D01*
X107605413Y-87334425D01*
X107594605Y-87333953D01*
X107448450Y-87321165D01*
X107435067Y-87319254D01*
X107405773Y-87313427D01*
X107397871Y-87311585D01*
X107273071Y-87278146D01*
X107257715Y-87272933D01*
X107240790Y-87265923D01*
X107235835Y-87263743D01*
X107110073Y-87205100D01*
X107091354Y-87194293D01*
X106966411Y-87106808D01*
X106949854Y-87092915D01*
X106842001Y-86985064D01*
X106828107Y-86968507D01*
X106740615Y-86843560D01*
X106729808Y-86824842D01*
X106723085Y-86810425D01*
X106671154Y-86699065D01*
X106669003Y-86694176D01*
X106661971Y-86677200D01*
X106656759Y-86661845D01*
X106656757Y-86661836D01*
X106623319Y-86537054D01*
X106621485Y-86529192D01*
X106615643Y-86499826D01*
X106613738Y-86486481D01*
X106600972Y-86340603D01*
X106600500Y-86329793D01*
X106600500Y-85740437D01*
X114449500Y-85740437D01*
X114449500Y-85929410D01*
X114479059Y-86116042D01*
X114537454Y-86295760D01*
X114590662Y-86400185D01*
X114623240Y-86464123D01*
X114734310Y-86616997D01*
X114867927Y-86750614D01*
X115020801Y-86861684D01*
X115092187Y-86898057D01*
X115189163Y-86947469D01*
X115189165Y-86947469D01*
X115189168Y-86947471D01*
X115253910Y-86968507D01*
X115368881Y-87005864D01*
X115555514Y-87035424D01*
X115555519Y-87035424D01*
X115744486Y-87035424D01*
X115931118Y-87005864D01*
X115995133Y-86985064D01*
X116110832Y-86947471D01*
X116279199Y-86861684D01*
X116432073Y-86750614D01*
X116565690Y-86616997D01*
X116676760Y-86464123D01*
X116762547Y-86295756D01*
X116820940Y-86116042D01*
X116825912Y-86084648D01*
X116850500Y-85929410D01*
X116850500Y-85740437D01*
X116820940Y-85553805D01*
X116776463Y-85416920D01*
X116762547Y-85374092D01*
X116762545Y-85374089D01*
X116762545Y-85374087D01*
X116717290Y-85285271D01*
X116676760Y-85205725D01*
X116565690Y-85052851D01*
X116432073Y-84919234D01*
X116279199Y-84808164D01*
X116110836Y-84722378D01*
X115931118Y-84663983D01*
X115744486Y-84634424D01*
X115744481Y-84634424D01*
X115555519Y-84634424D01*
X115555514Y-84634424D01*
X115368881Y-84663983D01*
X115189163Y-84722378D01*
X115020800Y-84808164D01*
X114933579Y-84871534D01*
X114867927Y-84919234D01*
X114867925Y-84919236D01*
X114867924Y-84919236D01*
X114734312Y-85052848D01*
X114734312Y-85052849D01*
X114734310Y-85052851D01*
X114686610Y-85118503D01*
X114623240Y-85205724D01*
X114537454Y-85374087D01*
X114479059Y-85553805D01*
X114449500Y-85740437D01*
X106600500Y-85740437D01*
X106600500Y-77865047D01*
X106620185Y-77798008D01*
X106672989Y-77752253D01*
X106724500Y-77741047D01*
X106751380Y-77741047D01*
X106751382Y-77741047D01*
X106751387Y-77741046D01*
X106751391Y-77741046D01*
X107051750Y-77703101D01*
X107051749Y-77703101D01*
X107051758Y-77703100D01*
X107119666Y-77685664D01*
X107189491Y-77688057D01*
X107246941Y-77727823D01*
X107273771Y-77792336D01*
X107274501Y-77805768D01*
X107274501Y-83959602D01*
X107289033Y-84032659D01*
X107289034Y-84032663D01*
X107289035Y-84032664D01*
X107344400Y-84115525D01*
X107427261Y-84170890D01*
X107427265Y-84170891D01*
X107500322Y-84185423D01*
X107500325Y-84185424D01*
X107500327Y-84185424D01*
X114999677Y-84185424D01*
X114999678Y-84185423D01*
X115072741Y-84170890D01*
X115155602Y-84115525D01*
X115210967Y-84032664D01*
X115225501Y-83959598D01*
X115225501Y-77810250D01*
X115225501Y-77810247D01*
X115225500Y-77810245D01*
X115210968Y-77737186D01*
X115204712Y-77727823D01*
X115192614Y-77709716D01*
X118349501Y-77709716D01*
X118349501Y-83709718D01*
X118349501Y-83710132D01*
X118849793Y-84210424D01*
X118901561Y-84210424D01*
X118901570Y-84210423D01*
X121850207Y-84210423D01*
X122350500Y-83710132D01*
X122350500Y-83709718D01*
X122350500Y-81959718D01*
X122350207Y-81959425D01*
X122350205Y-81959424D01*
X122100208Y-81959424D01*
X122099794Y-81959424D01*
X122099793Y-81959424D01*
X121849500Y-82209717D01*
X121849500Y-83408353D01*
X121829815Y-83475392D01*
X121813182Y-83496033D01*
X121636113Y-83673105D01*
X121574790Y-83706591D01*
X121548431Y-83709425D01*
X119151569Y-83709425D01*
X119084530Y-83689740D01*
X119063888Y-83673106D01*
X118886819Y-83496036D01*
X118853334Y-83434713D01*
X118850500Y-83408355D01*
X118850500Y-81823995D01*
X123224499Y-81823995D01*
X123249497Y-81949662D01*
X123249499Y-81949668D01*
X123298533Y-82068048D01*
X123298538Y-82068057D01*
X123369723Y-82174592D01*
X123369726Y-82174596D01*
X123460327Y-82265197D01*
X123460331Y-82265200D01*
X123566866Y-82336385D01*
X123566875Y-82336390D01*
X123593692Y-82347498D01*
X123685256Y-82385425D01*
X123685260Y-82385425D01*
X123685261Y-82385426D01*
X123810928Y-82410424D01*
X123810931Y-82410424D01*
X123939071Y-82410424D01*
X124023615Y-82393606D01*
X124064744Y-82385425D01*
X124183127Y-82336389D01*
X124289669Y-82265200D01*
X124380276Y-82174593D01*
X124451465Y-82068051D01*
X124500501Y-81949668D01*
X124525500Y-81823993D01*
X124525500Y-81695855D01*
X124525500Y-81695852D01*
X124500502Y-81570185D01*
X124500501Y-81570184D01*
X124500501Y-81570180D01*
X124451465Y-81451797D01*
X124451464Y-81451796D01*
X124451461Y-81451790D01*
X124380276Y-81345255D01*
X124380273Y-81345251D01*
X124289676Y-81254654D01*
X124289671Y-81254650D01*
X124289669Y-81254648D01*
X124280603Y-81248590D01*
X124235802Y-81194977D01*
X124225500Y-81145492D01*
X124225500Y-80324470D01*
X124245185Y-80257431D01*
X124280607Y-80221369D01*
X124364670Y-80165201D01*
X124455277Y-80074594D01*
X124526466Y-79968052D01*
X124575502Y-79849669D01*
X124583683Y-79808540D01*
X124600501Y-79723996D01*
X124600501Y-79595853D01*
X124575503Y-79470186D01*
X124575502Y-79470185D01*
X124575502Y-79470181D01*
X124526466Y-79351798D01*
X124526465Y-79351797D01*
X124526462Y-79351791D01*
X124455277Y-79245256D01*
X124455274Y-79245252D01*
X124364673Y-79154651D01*
X124364669Y-79154648D01*
X124258134Y-79083463D01*
X124258125Y-79083458D01*
X124139745Y-79034424D01*
X124139739Y-79034422D01*
X124014072Y-79009425D01*
X124014070Y-79009425D01*
X123885932Y-79009425D01*
X123885930Y-79009425D01*
X123760262Y-79034422D01*
X123760256Y-79034424D01*
X123641876Y-79083458D01*
X123641867Y-79083463D01*
X123535332Y-79154648D01*
X123535328Y-79154651D01*
X123444727Y-79245252D01*
X123444724Y-79245256D01*
X123373539Y-79351791D01*
X123373534Y-79351800D01*
X123324500Y-79470180D01*
X123324498Y-79470186D01*
X123299501Y-79595853D01*
X123299501Y-79595856D01*
X123299501Y-79723994D01*
X123299501Y-79723996D01*
X123299500Y-79723996D01*
X123324498Y-79849663D01*
X123324500Y-79849669D01*
X123373534Y-79968049D01*
X123373539Y-79968058D01*
X123444724Y-80074593D01*
X123444727Y-80074597D01*
X123488180Y-80118049D01*
X123521666Y-80179372D01*
X123524500Y-80205731D01*
X123524500Y-81145492D01*
X123504815Y-81212531D01*
X123469396Y-81248591D01*
X123460328Y-81254650D01*
X123460324Y-81254654D01*
X123369726Y-81345251D01*
X123369723Y-81345255D01*
X123298538Y-81451790D01*
X123298533Y-81451799D01*
X123249499Y-81570179D01*
X123249497Y-81570185D01*
X123224500Y-81695852D01*
X123224500Y-81695855D01*
X123224500Y-81823993D01*
X123224500Y-81823995D01*
X123224499Y-81823995D01*
X118850500Y-81823995D01*
X118850500Y-78011492D01*
X118870185Y-77944453D01*
X118886819Y-77923811D01*
X119063888Y-77746742D01*
X119125211Y-77713257D01*
X119151569Y-77710423D01*
X121548431Y-77710423D01*
X121615470Y-77730108D01*
X121636112Y-77746742D01*
X121813181Y-77923812D01*
X121846666Y-77985135D01*
X121849500Y-78011493D01*
X121849500Y-78710132D01*
X122082057Y-78942689D01*
X122082058Y-78942691D01*
X122099499Y-78960132D01*
X122099792Y-78960425D01*
X122350207Y-78960425D01*
X122350500Y-78960132D01*
X122350500Y-77709716D01*
X122350207Y-77709423D01*
X121850207Y-77209425D01*
X121850206Y-77209424D01*
X118850207Y-77209423D01*
X118849793Y-77209423D01*
X118849792Y-77209423D01*
X118361307Y-77697909D01*
X118361305Y-77697911D01*
X118349794Y-77709423D01*
X118349501Y-77709716D01*
X115192614Y-77709716D01*
X115155602Y-77654323D01*
X115072741Y-77598958D01*
X115072740Y-77598957D01*
X115072736Y-77598956D01*
X114999678Y-77584424D01*
X114999675Y-77584424D01*
X111721057Y-77584424D01*
X111654018Y-77564739D01*
X111608263Y-77511935D01*
X111597057Y-77460424D01*
X111597057Y-77000497D01*
X136090358Y-77000497D01*
X136090358Y-77132281D01*
X136096251Y-77154274D01*
X136124466Y-77259576D01*
X136136665Y-77280705D01*
X136190358Y-77373703D01*
X136190360Y-77373705D01*
X136204039Y-77387384D01*
X136237524Y-77448707D01*
X136240358Y-77475065D01*
X136240358Y-85571926D01*
X136264244Y-85661070D01*
X136264245Y-85661073D01*
X136310385Y-85740991D01*
X136310387Y-85740994D01*
X136310388Y-85740995D01*
X136582855Y-86013462D01*
X136838181Y-86268787D01*
X136871666Y-86330110D01*
X136874500Y-86356468D01*
X136874500Y-86375817D01*
X136886997Y-86422457D01*
X136908608Y-86503112D01*
X136923666Y-86529192D01*
X136974500Y-86617239D01*
X137067686Y-86710425D01*
X137181814Y-86776317D01*
X137309108Y-86810425D01*
X137309110Y-86810425D01*
X137440890Y-86810425D01*
X137440892Y-86810425D01*
X137568186Y-86776317D01*
X137682314Y-86710425D01*
X137775500Y-86617239D01*
X137841392Y-86503111D01*
X137875500Y-86375817D01*
X137875500Y-86244033D01*
X137841392Y-86116739D01*
X137775500Y-86002611D01*
X137682314Y-85909425D01*
X137625250Y-85876479D01*
X137568187Y-85843533D01*
X137504539Y-85826479D01*
X137440892Y-85809425D01*
X137440891Y-85809425D01*
X137421543Y-85809425D01*
X137354504Y-85789740D01*
X137333862Y-85773106D01*
X136977677Y-85416920D01*
X136944192Y-85355597D01*
X136941358Y-85329239D01*
X136941358Y-84823995D01*
X138524499Y-84823995D01*
X138549497Y-84949662D01*
X138549499Y-84949668D01*
X138598533Y-85068048D01*
X138598538Y-85068057D01*
X138669723Y-85174592D01*
X138669726Y-85174596D01*
X138760327Y-85265197D01*
X138760331Y-85265200D01*
X138866866Y-85336385D01*
X138866872Y-85336388D01*
X138866873Y-85336389D01*
X138985256Y-85385425D01*
X138985260Y-85385425D01*
X138985261Y-85385426D01*
X139110928Y-85410424D01*
X139110931Y-85410424D01*
X139239071Y-85410424D01*
X139339613Y-85390424D01*
X139364744Y-85385425D01*
X139483127Y-85336389D01*
X139589669Y-85265200D01*
X139680276Y-85174593D01*
X139751465Y-85068051D01*
X139800501Y-84949668D01*
X139824505Y-84828995D01*
X144494499Y-84828995D01*
X144519497Y-84954662D01*
X144519499Y-84954668D01*
X144568533Y-85073048D01*
X144568538Y-85073057D01*
X144639723Y-85179592D01*
X144639726Y-85179596D01*
X144730327Y-85270197D01*
X144730331Y-85270200D01*
X144836866Y-85341385D01*
X144836872Y-85341388D01*
X144836873Y-85341389D01*
X144955256Y-85390425D01*
X144955260Y-85390425D01*
X144955261Y-85390426D01*
X145080928Y-85415424D01*
X145080931Y-85415424D01*
X145209071Y-85415424D01*
X145293615Y-85398606D01*
X145334744Y-85390425D01*
X145453127Y-85341389D01*
X145559669Y-85270200D01*
X145650276Y-85179593D01*
X145721465Y-85073051D01*
X145770501Y-84954668D01*
X145795500Y-84828993D01*
X145795500Y-84700855D01*
X145795500Y-84700852D01*
X145770502Y-84575185D01*
X145770501Y-84575184D01*
X145770501Y-84575180D01*
X145721465Y-84456797D01*
X145721464Y-84456796D01*
X145721461Y-84456790D01*
X145650276Y-84350255D01*
X145650273Y-84350251D01*
X145559672Y-84259650D01*
X145559668Y-84259647D01*
X145453133Y-84188462D01*
X145453124Y-84188457D01*
X145334744Y-84139423D01*
X145334738Y-84139421D01*
X145209071Y-84114424D01*
X145209069Y-84114424D01*
X145080931Y-84114424D01*
X145080929Y-84114424D01*
X144955261Y-84139421D01*
X144955255Y-84139423D01*
X144836875Y-84188457D01*
X144836866Y-84188462D01*
X144730331Y-84259647D01*
X144730327Y-84259650D01*
X144639726Y-84350251D01*
X144639723Y-84350255D01*
X144568538Y-84456790D01*
X144568533Y-84456799D01*
X144519499Y-84575179D01*
X144519497Y-84575185D01*
X144494500Y-84700852D01*
X144494500Y-84700855D01*
X144494500Y-84828993D01*
X144494500Y-84828995D01*
X144494499Y-84828995D01*
X139824505Y-84828995D01*
X139825500Y-84823995D01*
X139825500Y-84695852D01*
X139800502Y-84570185D01*
X139800501Y-84570184D01*
X139800501Y-84570180D01*
X139751465Y-84451797D01*
X139751464Y-84451796D01*
X139751461Y-84451790D01*
X139680276Y-84345255D01*
X139680273Y-84345251D01*
X139589672Y-84254650D01*
X139589668Y-84254647D01*
X139483133Y-84183462D01*
X139483124Y-84183457D01*
X139364744Y-84134423D01*
X139364738Y-84134421D01*
X139239071Y-84109424D01*
X139239069Y-84109424D01*
X139110931Y-84109424D01*
X139110929Y-84109424D01*
X138985261Y-84134421D01*
X138985255Y-84134423D01*
X138866875Y-84183457D01*
X138866866Y-84183462D01*
X138760331Y-84254647D01*
X138760327Y-84254650D01*
X138669726Y-84345251D01*
X138669723Y-84345255D01*
X138598538Y-84451790D01*
X138598533Y-84451799D01*
X138549499Y-84570179D01*
X138549497Y-84570185D01*
X138524500Y-84695852D01*
X138524500Y-84695855D01*
X138524500Y-84823993D01*
X138524500Y-84823995D01*
X138524499Y-84823995D01*
X136941358Y-84823995D01*
X136941358Y-81824995D01*
X144299498Y-81824995D01*
X144324496Y-81950662D01*
X144324498Y-81950668D01*
X144373532Y-82069048D01*
X144373537Y-82069057D01*
X144444722Y-82175592D01*
X144444725Y-82175596D01*
X144535326Y-82266197D01*
X144535330Y-82266200D01*
X144641865Y-82337385D01*
X144641871Y-82337388D01*
X144641872Y-82337389D01*
X144760255Y-82386425D01*
X144760259Y-82386425D01*
X144760260Y-82386426D01*
X144885927Y-82411424D01*
X144885930Y-82411424D01*
X145014070Y-82411424D01*
X145098614Y-82394606D01*
X145139743Y-82386425D01*
X145258126Y-82337389D01*
X145364668Y-82266200D01*
X145455275Y-82175593D01*
X145526464Y-82069051D01*
X145575500Y-81950668D01*
X145600499Y-81824993D01*
X145600499Y-81734466D01*
X145620184Y-81667427D01*
X145672988Y-81621672D01*
X145724498Y-81610466D01*
X147630425Y-81610466D01*
X147697461Y-81630151D01*
X147743216Y-81682955D01*
X147754422Y-81734466D01*
X147754422Y-82633457D01*
X147734737Y-82700496D01*
X147718103Y-82721138D01*
X146664531Y-83774709D01*
X146664527Y-83774714D01*
X146618387Y-83854632D01*
X146618386Y-83854635D01*
X146594500Y-83943779D01*
X146594500Y-85906248D01*
X146574815Y-85973287D01*
X146558181Y-85993929D01*
X146544502Y-86007607D01*
X146544500Y-86007610D01*
X146478608Y-86121736D01*
X146444500Y-86249032D01*
X146444500Y-86380815D01*
X146478608Y-86508111D01*
X146495319Y-86537054D01*
X146544500Y-86622238D01*
X146637686Y-86715424D01*
X146736521Y-86772487D01*
X146748959Y-86779668D01*
X146751814Y-86781316D01*
X146879108Y-86815424D01*
X146879110Y-86815424D01*
X147010890Y-86815424D01*
X147010892Y-86815424D01*
X147138186Y-86781316D01*
X147252314Y-86715424D01*
X147345500Y-86622238D01*
X147411392Y-86508110D01*
X147445500Y-86380816D01*
X147445500Y-86249032D01*
X147411392Y-86121738D01*
X147408103Y-86116042D01*
X147387091Y-86079648D01*
X147345500Y-86007610D01*
X147331819Y-85993929D01*
X147298334Y-85932606D01*
X147295500Y-85906248D01*
X147295500Y-84186466D01*
X147315185Y-84119427D01*
X147331819Y-84098785D01*
X147757499Y-83673105D01*
X148385391Y-83045213D01*
X148431536Y-82965289D01*
X148455422Y-82876145D01*
X148455422Y-81668644D01*
X148475107Y-81601605D01*
X148491741Y-81580963D01*
X148505422Y-81567282D01*
X148571314Y-81453154D01*
X148605422Y-81325860D01*
X148605422Y-81194076D01*
X148571314Y-81066782D01*
X148538045Y-81009158D01*
X154394500Y-81009158D01*
X154394500Y-81160689D01*
X154433719Y-81307060D01*
X154456349Y-81346255D01*
X154509485Y-81438289D01*
X154616635Y-81545439D01*
X154747865Y-81621205D01*
X154894234Y-81660424D01*
X154894236Y-81660424D01*
X155045764Y-81660424D01*
X155045766Y-81660424D01*
X155192135Y-81621205D01*
X155323365Y-81545439D01*
X155430515Y-81438289D01*
X155506281Y-81307059D01*
X155545500Y-81160690D01*
X155545500Y-81009158D01*
X160174500Y-81009158D01*
X160174500Y-81160689D01*
X160213719Y-81307060D01*
X160236349Y-81346255D01*
X160289485Y-81438289D01*
X160396635Y-81545439D01*
X160527865Y-81621205D01*
X160674234Y-81660424D01*
X160674236Y-81660424D01*
X160825764Y-81660424D01*
X160825766Y-81660424D01*
X160972135Y-81621205D01*
X161103365Y-81545439D01*
X161210515Y-81438289D01*
X161286281Y-81307059D01*
X161325500Y-81160690D01*
X161325500Y-81009158D01*
X161286281Y-80862789D01*
X161210515Y-80731559D01*
X161103365Y-80624409D01*
X161037750Y-80586526D01*
X160972136Y-80548643D01*
X160898950Y-80529033D01*
X160825766Y-80509424D01*
X160674234Y-80509424D01*
X160527863Y-80548643D01*
X160396635Y-80624409D01*
X160396632Y-80624411D01*
X160289487Y-80731556D01*
X160289485Y-80731559D01*
X160213719Y-80862787D01*
X160174500Y-81009158D01*
X155545500Y-81009158D01*
X155506281Y-80862789D01*
X155430515Y-80731559D01*
X155323365Y-80624409D01*
X155257750Y-80586526D01*
X155192136Y-80548643D01*
X155118950Y-80529033D01*
X155045766Y-80509424D01*
X154894234Y-80509424D01*
X154747863Y-80548643D01*
X154616635Y-80624409D01*
X154616632Y-80624411D01*
X154509487Y-80731556D01*
X154509485Y-80731559D01*
X154433719Y-80862787D01*
X154394500Y-81009158D01*
X148538045Y-81009158D01*
X148505422Y-80952654D01*
X148412236Y-80859468D01*
X148355172Y-80826522D01*
X148298109Y-80793576D01*
X148234461Y-80776522D01*
X148170814Y-80759468D01*
X148039030Y-80759468D01*
X147911736Y-80793576D01*
X147911735Y-80793576D01*
X147911733Y-80793577D01*
X147911732Y-80793577D01*
X147797605Y-80859468D01*
X147783925Y-80873149D01*
X147722601Y-80906633D01*
X147696246Y-80909466D01*
X145403812Y-80909466D01*
X145314668Y-80933352D01*
X145314665Y-80933353D01*
X145234747Y-80979493D01*
X145234742Y-80979497D01*
X145135790Y-81078448D01*
X145074467Y-81111932D01*
X145023917Y-81112383D01*
X145014069Y-81110424D01*
X145014068Y-81110424D01*
X144885930Y-81110424D01*
X144885928Y-81110424D01*
X144760260Y-81135421D01*
X144760254Y-81135423D01*
X144641874Y-81184457D01*
X144641865Y-81184462D01*
X144535330Y-81255647D01*
X144535326Y-81255650D01*
X144444725Y-81346251D01*
X144444722Y-81346255D01*
X144373537Y-81452790D01*
X144373532Y-81452799D01*
X144324498Y-81571179D01*
X144324496Y-81571185D01*
X144299499Y-81696852D01*
X144299499Y-81696855D01*
X144299499Y-81824993D01*
X144299499Y-81824995D01*
X144299498Y-81824995D01*
X136941358Y-81824995D01*
X136941358Y-79048994D01*
X154849499Y-79048994D01*
X154874497Y-79174661D01*
X154874499Y-79174667D01*
X154923533Y-79293047D01*
X154923538Y-79293056D01*
X154994723Y-79399591D01*
X154994726Y-79399595D01*
X155085327Y-79490196D01*
X155085331Y-79490199D01*
X155191866Y-79561384D01*
X155191872Y-79561387D01*
X155191873Y-79561388D01*
X155310256Y-79610424D01*
X155310260Y-79610424D01*
X155310261Y-79610425D01*
X155435928Y-79635423D01*
X155435931Y-79635423D01*
X155564071Y-79635423D01*
X155648615Y-79618605D01*
X155689744Y-79610424D01*
X155808127Y-79561388D01*
X155914669Y-79490199D01*
X155914672Y-79490196D01*
X155933127Y-79471742D01*
X155994450Y-79438257D01*
X156020808Y-79435423D01*
X159712901Y-79435423D01*
X159779940Y-79455108D01*
X159816003Y-79490531D01*
X159831005Y-79512983D01*
X159921606Y-79603584D01*
X159921610Y-79603587D01*
X160028145Y-79674772D01*
X160028151Y-79674775D01*
X160028152Y-79674776D01*
X160146535Y-79723812D01*
X160146539Y-79723812D01*
X160146540Y-79723813D01*
X160272207Y-79748811D01*
X160272210Y-79748811D01*
X160400350Y-79748811D01*
X160484894Y-79731993D01*
X160526023Y-79723812D01*
X160644406Y-79674776D01*
X160750948Y-79603587D01*
X160841555Y-79512980D01*
X160912744Y-79406438D01*
X160961780Y-79288055D01*
X160986779Y-79162380D01*
X160986779Y-79034242D01*
X160986779Y-79034239D01*
X160961781Y-78908572D01*
X160961780Y-78908571D01*
X160961780Y-78908567D01*
X160912744Y-78790184D01*
X160912743Y-78790183D01*
X160912740Y-78790177D01*
X160841555Y-78683642D01*
X160841552Y-78683638D01*
X160750951Y-78593037D01*
X160750947Y-78593034D01*
X160644412Y-78521849D01*
X160644403Y-78521844D01*
X160526023Y-78472810D01*
X160526017Y-78472808D01*
X160400350Y-78447811D01*
X160400348Y-78447811D01*
X160272210Y-78447811D01*
X160272208Y-78447811D01*
X160146540Y-78472808D01*
X160146534Y-78472810D01*
X160022524Y-78524177D01*
X160021767Y-78522349D01*
X159973561Y-78534423D01*
X156020808Y-78534423D01*
X155953769Y-78514738D01*
X155933127Y-78498104D01*
X155914672Y-78479649D01*
X155914668Y-78479646D01*
X155808133Y-78408461D01*
X155808124Y-78408456D01*
X155689744Y-78359422D01*
X155689738Y-78359420D01*
X155564071Y-78334423D01*
X155564069Y-78334423D01*
X155435931Y-78334423D01*
X155435929Y-78334423D01*
X155310261Y-78359420D01*
X155310255Y-78359422D01*
X155191875Y-78408456D01*
X155191866Y-78408461D01*
X155085331Y-78479646D01*
X155085327Y-78479649D01*
X154994726Y-78570250D01*
X154994723Y-78570254D01*
X154923538Y-78676789D01*
X154923533Y-78676798D01*
X154874499Y-78795178D01*
X154874497Y-78795184D01*
X154849500Y-78920851D01*
X154849500Y-78920854D01*
X154849500Y-79048992D01*
X154849500Y-79048994D01*
X154849499Y-79048994D01*
X136941358Y-79048994D01*
X136941358Y-77475065D01*
X136961043Y-77408026D01*
X136977677Y-77387384D01*
X136983814Y-77381247D01*
X136991358Y-77373703D01*
X137057250Y-77259575D01*
X137091358Y-77132281D01*
X137091358Y-77000497D01*
X137057250Y-76873203D01*
X136991358Y-76759075D01*
X136898172Y-76665889D01*
X136841108Y-76632943D01*
X136784045Y-76599997D01*
X136720397Y-76582943D01*
X136656750Y-76565889D01*
X136524966Y-76565889D01*
X136397670Y-76599997D01*
X136283544Y-76665889D01*
X136283541Y-76665891D01*
X136190360Y-76759072D01*
X136190358Y-76759075D01*
X136124466Y-76873201D01*
X136107695Y-76935793D01*
X136090358Y-77000497D01*
X111597057Y-77000497D01*
X111597057Y-75184923D01*
X158100000Y-75184923D01*
X160600000Y-75184922D01*
X160600001Y-73934924D01*
X158100000Y-73934924D01*
X158100000Y-75184923D01*
X111597057Y-75184923D01*
X111597057Y-74069033D01*
X135249501Y-74069033D01*
X135249501Y-74200816D01*
X135283609Y-74328112D01*
X135287831Y-74335424D01*
X135349501Y-74442239D01*
X135442687Y-74535425D01*
X135556815Y-74601317D01*
X135684109Y-74635425D01*
X135684111Y-74635425D01*
X135815891Y-74635425D01*
X135815893Y-74635425D01*
X135943187Y-74601317D01*
X136057315Y-74535425D01*
X136150501Y-74442239D01*
X136205243Y-74347424D01*
X136255810Y-74299208D01*
X136312630Y-74285424D01*
X139191324Y-74285424D01*
X139258363Y-74305109D01*
X139279005Y-74321743D01*
X139292686Y-74335424D01*
X139406814Y-74401316D01*
X139534108Y-74435424D01*
X139534110Y-74435424D01*
X139665890Y-74435424D01*
X139665892Y-74435424D01*
X139793186Y-74401316D01*
X139907314Y-74335424D01*
X140000500Y-74242238D01*
X140066392Y-74128110D01*
X140100500Y-74000816D01*
X140100500Y-73869032D01*
X140066392Y-73741738D01*
X140064969Y-73739274D01*
X140057563Y-73726445D01*
X140000500Y-73627610D01*
X139907314Y-73534424D01*
X139850250Y-73501478D01*
X139793187Y-73468532D01*
X139729539Y-73451478D01*
X139665892Y-73434424D01*
X139534108Y-73434424D01*
X139406814Y-73468532D01*
X139406813Y-73468532D01*
X139406811Y-73468533D01*
X139406810Y-73468533D01*
X139292683Y-73534424D01*
X139279001Y-73548107D01*
X139217677Y-73581591D01*
X139191322Y-73584424D01*
X135903857Y-73584424D01*
X135903855Y-73584425D01*
X135838326Y-73601983D01*
X135838323Y-73601984D01*
X135814711Y-73608311D01*
X135814709Y-73608311D01*
X135814709Y-73608312D01*
X135793541Y-73620533D01*
X135786022Y-73623648D01*
X135770045Y-73625365D01*
X135736254Y-73634425D01*
X135684109Y-73634425D01*
X135556813Y-73668533D01*
X135442687Y-73734425D01*
X135442684Y-73734427D01*
X135349503Y-73827608D01*
X135349501Y-73827611D01*
X135283609Y-73941737D01*
X135249501Y-74069033D01*
X111597057Y-74069033D01*
X111597057Y-73209424D01*
X111616742Y-73142385D01*
X111669546Y-73096630D01*
X111721057Y-73085424D01*
X114999677Y-73085424D01*
X114999678Y-73085423D01*
X115072741Y-73070890D01*
X115155602Y-73015525D01*
X115210967Y-72932664D01*
X115225501Y-72859598D01*
X115225501Y-72859552D01*
X162974999Y-72859552D01*
X162989502Y-72932464D01*
X162989504Y-72932468D01*
X163044759Y-73015163D01*
X163127454Y-73070418D01*
X163127458Y-73070420D01*
X163200370Y-73084923D01*
X163200373Y-73084924D01*
X166699999Y-73084924D01*
X166699999Y-70034924D01*
X162974999Y-70034924D01*
X162974999Y-72859552D01*
X115225501Y-72859552D01*
X115225501Y-66710250D01*
X115225501Y-66710247D01*
X115225500Y-66710245D01*
X115210968Y-66637188D01*
X115210967Y-66637184D01*
X115155602Y-66554323D01*
X115072741Y-66498958D01*
X115072740Y-66498957D01*
X115072736Y-66498956D01*
X114999678Y-66484424D01*
X114999675Y-66484424D01*
X107500327Y-66484424D01*
X107500324Y-66484424D01*
X107427265Y-66498956D01*
X107427261Y-66498957D01*
X107344400Y-66554323D01*
X107289034Y-66637184D01*
X107289033Y-66637188D01*
X107274501Y-66710245D01*
X107274501Y-72864031D01*
X107254816Y-72931070D01*
X107202012Y-72976825D01*
X107132854Y-72986769D01*
X107119664Y-72984135D01*
X107051755Y-72966699D01*
X106751391Y-72928753D01*
X106751382Y-72928753D01*
X106724499Y-72928753D01*
X106657460Y-72909068D01*
X106611705Y-72856264D01*
X106600499Y-72804753D01*
X106600499Y-64360756D01*
X137325000Y-64360756D01*
X137325000Y-70159648D01*
X151000000Y-70184922D01*
X151000000Y-66710295D01*
X162974999Y-66710295D01*
X162974999Y-69534924D01*
X166699999Y-69534924D01*
X167199999Y-69534924D01*
X170924999Y-69534924D01*
X170924999Y-66710297D01*
X170924998Y-66710295D01*
X170910495Y-66637383D01*
X170910493Y-66637379D01*
X170855238Y-66554684D01*
X170772543Y-66499429D01*
X170772539Y-66499427D01*
X170699626Y-66484924D01*
X167199999Y-66484924D01*
X167199999Y-69534924D01*
X166699999Y-69534924D01*
X166699999Y-66484924D01*
X163200372Y-66484924D01*
X163127458Y-66499427D01*
X163127454Y-66499429D01*
X163044759Y-66554684D01*
X162989504Y-66637379D01*
X162989502Y-66637383D01*
X162974999Y-66710295D01*
X151000000Y-66710295D01*
X151000000Y-64284922D01*
X150999999Y-64284921D01*
X137325000Y-64360756D01*
X106600499Y-64360756D01*
X106600499Y-64340330D01*
X106600971Y-64329527D01*
X106603659Y-64298792D01*
X106603659Y-64298791D01*
X106604872Y-64284921D01*
X106613881Y-64181916D01*
X106615784Y-64168580D01*
X106620880Y-64142961D01*
X106622701Y-64135153D01*
X106657088Y-64006809D01*
X106662292Y-63991479D01*
X106667488Y-63978932D01*
X106669619Y-63974088D01*
X106729816Y-63844990D01*
X106740618Y-63826280D01*
X106828109Y-63701325D01*
X106841999Y-63684773D01*
X106949857Y-63576913D01*
X106966407Y-63563025D01*
X107091366Y-63475526D01*
X107110064Y-63464731D01*
X107239186Y-63404519D01*
X107243980Y-63402409D01*
X107256563Y-63397197D01*
X107271882Y-63391997D01*
X107400204Y-63357612D01*
X107408073Y-63355777D01*
X107433648Y-63350690D01*
X107446996Y-63348785D01*
X107594299Y-63335897D01*
X107605106Y-63335425D01*
X170344588Y-63335425D01*
X170355394Y-63335896D01*
G37*
%TD.AperFunction*%
%TD*%
%TA.AperFunction,NonConductor*%
G36*
X109039096Y-73105109D02*
G01*
X109084851Y-73157913D01*
X109096057Y-73209424D01*
X109096057Y-74447613D01*
X109076372Y-74514652D01*
X109023568Y-74560407D01*
X108954410Y-74570351D01*
X108890854Y-74541326D01*
X108854126Y-74485931D01*
X108841675Y-74447613D01*
X108841602Y-74447387D01*
X108773928Y-74303573D01*
X108759917Y-74269747D01*
X108749610Y-74251896D01*
X108745066Y-74242238D01*
X108712693Y-74173441D01*
X108712689Y-74173435D01*
X108712679Y-74173420D01*
X108619846Y-74027139D01*
X108602408Y-73996934D01*
X108592408Y-73983902D01*
X108550462Y-73917806D01*
X108430873Y-73773248D01*
X108430873Y-73773247D01*
X108429423Y-73771495D01*
X108410638Y-73747013D01*
X108402134Y-73738509D01*
X108398757Y-73734427D01*
X108357473Y-73684523D01*
X108340445Y-73668533D01*
X108205855Y-73542144D01*
X108204443Y-73540818D01*
X108187887Y-73524262D01*
X108182012Y-73519754D01*
X108177515Y-73515531D01*
X108136772Y-73477271D01*
X108136773Y-73477271D01*
X108136768Y-73477267D01*
X107947509Y-73339761D01*
X107946195Y-73338806D01*
X107937966Y-73332492D01*
X107935716Y-73331193D01*
X107930464Y-73327377D01*
X107930455Y-73327371D01*
X107906190Y-73309741D01*
X107863525Y-73254411D01*
X107857547Y-73184797D01*
X107890154Y-73123003D01*
X107950993Y-73088646D01*
X107979077Y-73085424D01*
X108972057Y-73085424D01*
X109039096Y-73105109D01*
G37*
%TD.AperFunction*%
%TA.AperFunction,NonConductor*%
G36*
X109026767Y-76110907D02*
G01*
X109078244Y-76158151D01*
X109096057Y-76222185D01*
X109096057Y-77460424D01*
X109076372Y-77527463D01*
X109023568Y-77573218D01*
X108972057Y-77584424D01*
X107979010Y-77584424D01*
X107948751Y-77575539D01*
X107918040Y-77568399D01*
X107915485Y-77565771D01*
X107911971Y-77564739D01*
X107891328Y-77540915D01*
X107869343Y-77518296D01*
X107868614Y-77514703D01*
X107866216Y-77511935D01*
X107861729Y-77480730D01*
X107855464Y-77449819D01*
X107856793Y-77446403D01*
X107856272Y-77442777D01*
X107869373Y-77414089D01*
X107880811Y-77384708D01*
X107884371Y-77381247D01*
X107885297Y-77379221D01*
X107906117Y-77360111D01*
X107930467Y-77342420D01*
X107934678Y-77339705D01*
X107934585Y-77339566D01*
X107937954Y-77337314D01*
X107937966Y-77337308D01*
X107945015Y-77331898D01*
X107947421Y-77330101D01*
X108136768Y-77192533D01*
X108182020Y-77150038D01*
X108187887Y-77145538D01*
X108204428Y-77128995D01*
X108357473Y-76985277D01*
X108402140Y-76931283D01*
X108410638Y-76922787D01*
X108429428Y-76898298D01*
X108550462Y-76751994D01*
X108592411Y-76685892D01*
X108602408Y-76672866D01*
X108619837Y-76642675D01*
X108712691Y-76496362D01*
X108749612Y-76417900D01*
X108759917Y-76400053D01*
X108773925Y-76366233D01*
X108841602Y-76222413D01*
X108854126Y-76183868D01*
X108893562Y-76126192D01*
X108957921Y-76098993D01*
X109026767Y-76110907D01*
G37*
%TD.AperFunction*%
M02*
