%TF.GenerationSoftware,KiCad,Pcbnew,9.0.1*%
%TF.CreationDate,2025-08-28T21:03:41+10:00*%
%TF.ProjectId,ae-temp-monitor,61652d74-656d-4702-9d6d-6f6e69746f72,rev?*%
%TF.SameCoordinates,Original*%
%TF.FileFunction,Legend,Top*%
%TF.FilePolarity,Positive*%
%FSLAX46Y46*%
G04 Gerber Fmt 4.6, Leading zero omitted, Abs format (unit mm)*
G04 Created by KiCad (PCBNEW 9.0.1) date 2025-08-28 21:03:41*
%MOMM*%
%LPD*%
G01*
G04 APERTURE LIST*
G04 Aperture macros list*
%AMRoundRect*
0 Rectangle with rounded corners*
0 $1 Rounding radius*
0 $2 $3 $4 $5 $6 $7 $8 $9 X,Y pos of 4 corners*
0 Add a 4 corners polygon primitive as box body*
4,1,4,$2,$3,$4,$5,$6,$7,$8,$9,$2,$3,0*
0 Add four circle primitives for the rounded corners*
1,1,$1+$1,$2,$3*
1,1,$1+$1,$4,$5*
1,1,$1+$1,$6,$7*
1,1,$1+$1,$8,$9*
0 Add four rect primitives between the rounded corners*
20,1,$1+$1,$2,$3,$4,$5,0*
20,1,$1+$1,$4,$5,$6,$7,0*
20,1,$1+$1,$6,$7,$8,$9,0*
20,1,$1+$1,$8,$9,$2,$3,0*%
%AMFreePoly0*
4,1,6,0.725000,-0.725000,-0.725000,-0.725000,-0.725000,0.125000,-0.125000,0.725000,0.725000,0.725000,0.725000,-0.725000,0.725000,-0.725000,$1*%
G04 Aperture macros list end*
%ADD10C,0.150000*%
%ADD11C,0.120000*%
%ADD12C,0.000000*%
%ADD13C,0.750000*%
%ADD14R,1.400000X0.900000*%
%ADD15RoundRect,0.140000X0.170000X-0.140000X0.170000X0.140000X-0.170000X0.140000X-0.170000X-0.140000X0*%
%ADD16RoundRect,0.140000X-0.170000X0.140000X-0.170000X-0.140000X0.170000X-0.140000X0.170000X0.140000X0*%
%ADD17C,0.650000*%
%ADD18RoundRect,0.150000X-0.150000X-0.425000X0.150000X-0.425000X0.150000X0.425000X-0.150000X0.425000X0*%
%ADD19RoundRect,0.075000X-0.075000X-0.500000X0.075000X-0.500000X0.075000X0.500000X-0.075000X0.500000X0*%
%ADD20RoundRect,0.250000X-0.840000X-0.750000X0.840000X-0.750000X0.840000X0.750000X-0.840000X0.750000X0*%
%ADD21RoundRect,0.140000X0.140000X0.170000X-0.140000X0.170000X-0.140000X-0.170000X0.140000X-0.170000X0*%
%ADD22R,0.800000X0.400000*%
%ADD23R,0.400000X0.800000*%
%ADD24R,1.450000X1.450000*%
%ADD25FreePoly0,0.000000*%
%ADD26R,0.700000X0.700000*%
%ADD27RoundRect,0.135000X0.135000X0.185000X-0.135000X0.185000X-0.135000X-0.185000X0.135000X-0.185000X0*%
%ADD28RoundRect,0.135000X-0.185000X0.135000X-0.185000X-0.135000X0.185000X-0.135000X0.185000X0.135000X0*%
%ADD29R,0.340000X0.700000*%
%ADD30RoundRect,0.150000X-0.587500X-0.150000X0.587500X-0.150000X0.587500X0.150000X-0.587500X0.150000X0*%
%ADD31RoundRect,0.135000X-0.135000X-0.185000X0.135000X-0.185000X0.135000X0.185000X-0.135000X0.185000X0*%
%ADD32RoundRect,0.112500X-0.112500X0.187500X-0.112500X-0.187500X0.112500X-0.187500X0.112500X0.187500X0*%
%ADD33C,1.000000*%
%ADD34RoundRect,0.225000X0.250000X-0.225000X0.250000X0.225000X-0.250000X0.225000X-0.250000X-0.225000X0*%
%ADD35RoundRect,0.150000X0.512500X0.150000X-0.512500X0.150000X-0.512500X-0.150000X0.512500X-0.150000X0*%
%ADD36C,1.900000*%
G04 APERTURE END LIST*
D10*
X110764160Y-67574140D02*
X111240350Y-67574140D01*
X110668922Y-67859855D02*
X111002255Y-66859855D01*
X111002255Y-66859855D02*
X111335588Y-67859855D01*
X111668922Y-67336045D02*
X112002255Y-67336045D01*
X112145112Y-67859855D02*
X111668922Y-67859855D01*
X111668922Y-67859855D02*
X111668922Y-66859855D01*
X111668922Y-66859855D02*
X112145112Y-66859855D01*
X113192732Y-66859855D02*
X113764160Y-66859855D01*
X113478446Y-67859855D02*
X113478446Y-66859855D01*
X114478446Y-67812236D02*
X114383208Y-67859855D01*
X114383208Y-67859855D02*
X114192732Y-67859855D01*
X114192732Y-67859855D02*
X114097494Y-67812236D01*
X114097494Y-67812236D02*
X114049875Y-67716997D01*
X114049875Y-67716997D02*
X114049875Y-67336045D01*
X114049875Y-67336045D02*
X114097494Y-67240807D01*
X114097494Y-67240807D02*
X114192732Y-67193188D01*
X114192732Y-67193188D02*
X114383208Y-67193188D01*
X114383208Y-67193188D02*
X114478446Y-67240807D01*
X114478446Y-67240807D02*
X114526065Y-67336045D01*
X114526065Y-67336045D02*
X114526065Y-67431283D01*
X114526065Y-67431283D02*
X114049875Y-67526521D01*
X114954637Y-67859855D02*
X114954637Y-67193188D01*
X114954637Y-67288426D02*
X115002256Y-67240807D01*
X115002256Y-67240807D02*
X115097494Y-67193188D01*
X115097494Y-67193188D02*
X115240351Y-67193188D01*
X115240351Y-67193188D02*
X115335589Y-67240807D01*
X115335589Y-67240807D02*
X115383208Y-67336045D01*
X115383208Y-67336045D02*
X115383208Y-67859855D01*
X115383208Y-67336045D02*
X115430827Y-67240807D01*
X115430827Y-67240807D02*
X115526065Y-67193188D01*
X115526065Y-67193188D02*
X115668922Y-67193188D01*
X115668922Y-67193188D02*
X115764161Y-67240807D01*
X115764161Y-67240807D02*
X115811780Y-67336045D01*
X115811780Y-67336045D02*
X115811780Y-67859855D01*
X116287970Y-67193188D02*
X116287970Y-68193188D01*
X116287970Y-67240807D02*
X116383208Y-67193188D01*
X116383208Y-67193188D02*
X116573684Y-67193188D01*
X116573684Y-67193188D02*
X116668922Y-67240807D01*
X116668922Y-67240807D02*
X116716541Y-67288426D01*
X116716541Y-67288426D02*
X116764160Y-67383664D01*
X116764160Y-67383664D02*
X116764160Y-67669378D01*
X116764160Y-67669378D02*
X116716541Y-67764616D01*
X116716541Y-67764616D02*
X116668922Y-67812236D01*
X116668922Y-67812236D02*
X116573684Y-67859855D01*
X116573684Y-67859855D02*
X116383208Y-67859855D01*
X116383208Y-67859855D02*
X116287970Y-67812236D01*
X117907018Y-67812236D02*
X118049875Y-67859855D01*
X118049875Y-67859855D02*
X118287970Y-67859855D01*
X118287970Y-67859855D02*
X118383208Y-67812236D01*
X118383208Y-67812236D02*
X118430827Y-67764616D01*
X118430827Y-67764616D02*
X118478446Y-67669378D01*
X118478446Y-67669378D02*
X118478446Y-67574140D01*
X118478446Y-67574140D02*
X118430827Y-67478902D01*
X118430827Y-67478902D02*
X118383208Y-67431283D01*
X118383208Y-67431283D02*
X118287970Y-67383664D01*
X118287970Y-67383664D02*
X118097494Y-67336045D01*
X118097494Y-67336045D02*
X118002256Y-67288426D01*
X118002256Y-67288426D02*
X117954637Y-67240807D01*
X117954637Y-67240807D02*
X117907018Y-67145569D01*
X117907018Y-67145569D02*
X117907018Y-67050331D01*
X117907018Y-67050331D02*
X117954637Y-66955093D01*
X117954637Y-66955093D02*
X118002256Y-66907474D01*
X118002256Y-66907474D02*
X118097494Y-66859855D01*
X118097494Y-66859855D02*
X118335589Y-66859855D01*
X118335589Y-66859855D02*
X118478446Y-66907474D01*
X119287970Y-67812236D02*
X119192732Y-67859855D01*
X119192732Y-67859855D02*
X119002256Y-67859855D01*
X119002256Y-67859855D02*
X118907018Y-67812236D01*
X118907018Y-67812236D02*
X118859399Y-67716997D01*
X118859399Y-67716997D02*
X118859399Y-67336045D01*
X118859399Y-67336045D02*
X118907018Y-67240807D01*
X118907018Y-67240807D02*
X119002256Y-67193188D01*
X119002256Y-67193188D02*
X119192732Y-67193188D01*
X119192732Y-67193188D02*
X119287970Y-67240807D01*
X119287970Y-67240807D02*
X119335589Y-67336045D01*
X119335589Y-67336045D02*
X119335589Y-67431283D01*
X119335589Y-67431283D02*
X118859399Y-67526521D01*
X119764161Y-67193188D02*
X119764161Y-67859855D01*
X119764161Y-67288426D02*
X119811780Y-67240807D01*
X119811780Y-67240807D02*
X119907018Y-67193188D01*
X119907018Y-67193188D02*
X120049875Y-67193188D01*
X120049875Y-67193188D02*
X120145113Y-67240807D01*
X120145113Y-67240807D02*
X120192732Y-67336045D01*
X120192732Y-67336045D02*
X120192732Y-67859855D01*
X120621304Y-67812236D02*
X120716542Y-67859855D01*
X120716542Y-67859855D02*
X120907018Y-67859855D01*
X120907018Y-67859855D02*
X121002256Y-67812236D01*
X121002256Y-67812236D02*
X121049875Y-67716997D01*
X121049875Y-67716997D02*
X121049875Y-67669378D01*
X121049875Y-67669378D02*
X121002256Y-67574140D01*
X121002256Y-67574140D02*
X120907018Y-67526521D01*
X120907018Y-67526521D02*
X120764161Y-67526521D01*
X120764161Y-67526521D02*
X120668923Y-67478902D01*
X120668923Y-67478902D02*
X120621304Y-67383664D01*
X120621304Y-67383664D02*
X120621304Y-67336045D01*
X120621304Y-67336045D02*
X120668923Y-67240807D01*
X120668923Y-67240807D02*
X120764161Y-67193188D01*
X120764161Y-67193188D02*
X120907018Y-67193188D01*
X120907018Y-67193188D02*
X121002256Y-67240807D01*
X121621304Y-67859855D02*
X121526066Y-67812236D01*
X121526066Y-67812236D02*
X121478447Y-67764616D01*
X121478447Y-67764616D02*
X121430828Y-67669378D01*
X121430828Y-67669378D02*
X121430828Y-67383664D01*
X121430828Y-67383664D02*
X121478447Y-67288426D01*
X121478447Y-67288426D02*
X121526066Y-67240807D01*
X121526066Y-67240807D02*
X121621304Y-67193188D01*
X121621304Y-67193188D02*
X121764161Y-67193188D01*
X121764161Y-67193188D02*
X121859399Y-67240807D01*
X121859399Y-67240807D02*
X121907018Y-67288426D01*
X121907018Y-67288426D02*
X121954637Y-67383664D01*
X121954637Y-67383664D02*
X121954637Y-67669378D01*
X121954637Y-67669378D02*
X121907018Y-67764616D01*
X121907018Y-67764616D02*
X121859399Y-67812236D01*
X121859399Y-67812236D02*
X121764161Y-67859855D01*
X121764161Y-67859855D02*
X121621304Y-67859855D01*
X122383209Y-67859855D02*
X122383209Y-67193188D01*
X122383209Y-67383664D02*
X122430828Y-67288426D01*
X122430828Y-67288426D02*
X122478447Y-67240807D01*
X122478447Y-67240807D02*
X122573685Y-67193188D01*
X122573685Y-67193188D02*
X122668923Y-67193188D01*
X110716541Y-68803132D02*
X110954636Y-69469799D01*
X110954636Y-69469799D02*
X111192731Y-68803132D01*
X111764160Y-68469799D02*
X111859398Y-68469799D01*
X111859398Y-68469799D02*
X111954636Y-68517418D01*
X111954636Y-68517418D02*
X112002255Y-68565037D01*
X112002255Y-68565037D02*
X112049874Y-68660275D01*
X112049874Y-68660275D02*
X112097493Y-68850751D01*
X112097493Y-68850751D02*
X112097493Y-69088846D01*
X112097493Y-69088846D02*
X112049874Y-69279322D01*
X112049874Y-69279322D02*
X112002255Y-69374560D01*
X112002255Y-69374560D02*
X111954636Y-69422180D01*
X111954636Y-69422180D02*
X111859398Y-69469799D01*
X111859398Y-69469799D02*
X111764160Y-69469799D01*
X111764160Y-69469799D02*
X111668922Y-69422180D01*
X111668922Y-69422180D02*
X111621303Y-69374560D01*
X111621303Y-69374560D02*
X111573684Y-69279322D01*
X111573684Y-69279322D02*
X111526065Y-69088846D01*
X111526065Y-69088846D02*
X111526065Y-68850751D01*
X111526065Y-68850751D02*
X111573684Y-68660275D01*
X111573684Y-68660275D02*
X111621303Y-68565037D01*
X111621303Y-68565037D02*
X111668922Y-68517418D01*
X111668922Y-68517418D02*
X111764160Y-68469799D01*
X112526065Y-69374560D02*
X112573684Y-69422180D01*
X112573684Y-69422180D02*
X112526065Y-69469799D01*
X112526065Y-69469799D02*
X112478446Y-69422180D01*
X112478446Y-69422180D02*
X112526065Y-69374560D01*
X112526065Y-69374560D02*
X112526065Y-69469799D01*
X113192731Y-68469799D02*
X113287969Y-68469799D01*
X113287969Y-68469799D02*
X113383207Y-68517418D01*
X113383207Y-68517418D02*
X113430826Y-68565037D01*
X113430826Y-68565037D02*
X113478445Y-68660275D01*
X113478445Y-68660275D02*
X113526064Y-68850751D01*
X113526064Y-68850751D02*
X113526064Y-69088846D01*
X113526064Y-69088846D02*
X113478445Y-69279322D01*
X113478445Y-69279322D02*
X113430826Y-69374560D01*
X113430826Y-69374560D02*
X113383207Y-69422180D01*
X113383207Y-69422180D02*
X113287969Y-69469799D01*
X113287969Y-69469799D02*
X113192731Y-69469799D01*
X113192731Y-69469799D02*
X113097493Y-69422180D01*
X113097493Y-69422180D02*
X113049874Y-69374560D01*
X113049874Y-69374560D02*
X113002255Y-69279322D01*
X113002255Y-69279322D02*
X112954636Y-69088846D01*
X112954636Y-69088846D02*
X112954636Y-68850751D01*
X112954636Y-68850751D02*
X113002255Y-68660275D01*
X113002255Y-68660275D02*
X113049874Y-68565037D01*
X113049874Y-68565037D02*
X113097493Y-68517418D01*
X113097493Y-68517418D02*
X113192731Y-68469799D01*
X113954636Y-69374560D02*
X114002255Y-69422180D01*
X114002255Y-69422180D02*
X113954636Y-69469799D01*
X113954636Y-69469799D02*
X113907017Y-69422180D01*
X113907017Y-69422180D02*
X113954636Y-69374560D01*
X113954636Y-69374560D02*
X113954636Y-69469799D01*
X114954635Y-69469799D02*
X114383207Y-69469799D01*
X114668921Y-69469799D02*
X114668921Y-68469799D01*
X114668921Y-68469799D02*
X114573683Y-68612656D01*
X114573683Y-68612656D02*
X114478445Y-68707894D01*
X114478445Y-68707894D02*
X114383207Y-68755513D01*
X110764160Y-70794028D02*
X111240350Y-70794028D01*
X110668922Y-71079743D02*
X111002255Y-70079743D01*
X111002255Y-70079743D02*
X111335588Y-71079743D01*
X112097493Y-71032124D02*
X112002255Y-71079743D01*
X112002255Y-71079743D02*
X111811779Y-71079743D01*
X111811779Y-71079743D02*
X111716541Y-71032124D01*
X111716541Y-71032124D02*
X111668922Y-70984504D01*
X111668922Y-70984504D02*
X111621303Y-70889266D01*
X111621303Y-70889266D02*
X111621303Y-70603552D01*
X111621303Y-70603552D02*
X111668922Y-70508314D01*
X111668922Y-70508314D02*
X111716541Y-70460695D01*
X111716541Y-70460695D02*
X111811779Y-70413076D01*
X111811779Y-70413076D02*
X112002255Y-70413076D01*
X112002255Y-70413076D02*
X112097493Y-70460695D01*
X112907017Y-71032124D02*
X112811779Y-71079743D01*
X112811779Y-71079743D02*
X112621303Y-71079743D01*
X112621303Y-71079743D02*
X112526065Y-71032124D01*
X112526065Y-71032124D02*
X112478446Y-70936885D01*
X112478446Y-70936885D02*
X112478446Y-70555933D01*
X112478446Y-70555933D02*
X112526065Y-70460695D01*
X112526065Y-70460695D02*
X112621303Y-70413076D01*
X112621303Y-70413076D02*
X112811779Y-70413076D01*
X112811779Y-70413076D02*
X112907017Y-70460695D01*
X112907017Y-70460695D02*
X112954636Y-70555933D01*
X112954636Y-70555933D02*
X112954636Y-70651171D01*
X112954636Y-70651171D02*
X112478446Y-70746409D01*
X113811779Y-71079743D02*
X113811779Y-70555933D01*
X113811779Y-70555933D02*
X113764160Y-70460695D01*
X113764160Y-70460695D02*
X113668922Y-70413076D01*
X113668922Y-70413076D02*
X113478446Y-70413076D01*
X113478446Y-70413076D02*
X113383208Y-70460695D01*
X113811779Y-71032124D02*
X113716541Y-71079743D01*
X113716541Y-71079743D02*
X113478446Y-71079743D01*
X113478446Y-71079743D02*
X113383208Y-71032124D01*
X113383208Y-71032124D02*
X113335589Y-70936885D01*
X113335589Y-70936885D02*
X113335589Y-70841647D01*
X113335589Y-70841647D02*
X113383208Y-70746409D01*
X113383208Y-70746409D02*
X113478446Y-70698790D01*
X113478446Y-70698790D02*
X113716541Y-70698790D01*
X113716541Y-70698790D02*
X113811779Y-70651171D01*
X115716541Y-71174981D02*
X115621303Y-71127362D01*
X115621303Y-71127362D02*
X115526065Y-71032124D01*
X115526065Y-71032124D02*
X115383208Y-70889266D01*
X115383208Y-70889266D02*
X115287970Y-70841647D01*
X115287970Y-70841647D02*
X115192732Y-70841647D01*
X115240351Y-71079743D02*
X115145113Y-71032124D01*
X115145113Y-71032124D02*
X115049875Y-70936885D01*
X115049875Y-70936885D02*
X115002256Y-70746409D01*
X115002256Y-70746409D02*
X115002256Y-70413076D01*
X115002256Y-70413076D02*
X115049875Y-70222600D01*
X115049875Y-70222600D02*
X115145113Y-70127362D01*
X115145113Y-70127362D02*
X115240351Y-70079743D01*
X115240351Y-70079743D02*
X115430827Y-70079743D01*
X115430827Y-70079743D02*
X115526065Y-70127362D01*
X115526065Y-70127362D02*
X115621303Y-70222600D01*
X115621303Y-70222600D02*
X115668922Y-70413076D01*
X115668922Y-70413076D02*
X115668922Y-70746409D01*
X115668922Y-70746409D02*
X115621303Y-70936885D01*
X115621303Y-70936885D02*
X115526065Y-71032124D01*
X115526065Y-71032124D02*
X115430827Y-71079743D01*
X115430827Y-71079743D02*
X115240351Y-71079743D01*
X116526065Y-70413076D02*
X116526065Y-71079743D01*
X116097494Y-70413076D02*
X116097494Y-70936885D01*
X116097494Y-70936885D02*
X116145113Y-71032124D01*
X116145113Y-71032124D02*
X116240351Y-71079743D01*
X116240351Y-71079743D02*
X116383208Y-71079743D01*
X116383208Y-71079743D02*
X116478446Y-71032124D01*
X116478446Y-71032124D02*
X116526065Y-70984504D01*
X117002256Y-71079743D02*
X117002256Y-70413076D01*
X117002256Y-70079743D02*
X116954637Y-70127362D01*
X116954637Y-70127362D02*
X117002256Y-70174981D01*
X117002256Y-70174981D02*
X117049875Y-70127362D01*
X117049875Y-70127362D02*
X117002256Y-70079743D01*
X117002256Y-70079743D02*
X117002256Y-70174981D01*
X117907017Y-70413076D02*
X117907017Y-71222600D01*
X117907017Y-71222600D02*
X117859398Y-71317838D01*
X117859398Y-71317838D02*
X117811779Y-71365457D01*
X117811779Y-71365457D02*
X117716541Y-71413076D01*
X117716541Y-71413076D02*
X117573684Y-71413076D01*
X117573684Y-71413076D02*
X117478446Y-71365457D01*
X117907017Y-71032124D02*
X117811779Y-71079743D01*
X117811779Y-71079743D02*
X117621303Y-71079743D01*
X117621303Y-71079743D02*
X117526065Y-71032124D01*
X117526065Y-71032124D02*
X117478446Y-70984504D01*
X117478446Y-70984504D02*
X117430827Y-70889266D01*
X117430827Y-70889266D02*
X117430827Y-70603552D01*
X117430827Y-70603552D02*
X117478446Y-70508314D01*
X117478446Y-70508314D02*
X117526065Y-70460695D01*
X117526065Y-70460695D02*
X117621303Y-70413076D01*
X117621303Y-70413076D02*
X117811779Y-70413076D01*
X117811779Y-70413076D02*
X117907017Y-70460695D01*
X118811779Y-70413076D02*
X118811779Y-71222600D01*
X118811779Y-71222600D02*
X118764160Y-71317838D01*
X118764160Y-71317838D02*
X118716541Y-71365457D01*
X118716541Y-71365457D02*
X118621303Y-71413076D01*
X118621303Y-71413076D02*
X118478446Y-71413076D01*
X118478446Y-71413076D02*
X118383208Y-71365457D01*
X118811779Y-71032124D02*
X118716541Y-71079743D01*
X118716541Y-71079743D02*
X118526065Y-71079743D01*
X118526065Y-71079743D02*
X118430827Y-71032124D01*
X118430827Y-71032124D02*
X118383208Y-70984504D01*
X118383208Y-70984504D02*
X118335589Y-70889266D01*
X118335589Y-70889266D02*
X118335589Y-70603552D01*
X118335589Y-70603552D02*
X118383208Y-70508314D01*
X118383208Y-70508314D02*
X118430827Y-70460695D01*
X118430827Y-70460695D02*
X118526065Y-70413076D01*
X118526065Y-70413076D02*
X118716541Y-70413076D01*
X118716541Y-70413076D02*
X118811779Y-70460695D01*
X157526666Y-82854743D02*
X157526666Y-83569028D01*
X157526666Y-83569028D02*
X157479047Y-83711885D01*
X157479047Y-83711885D02*
X157383809Y-83807124D01*
X157383809Y-83807124D02*
X157240952Y-83854743D01*
X157240952Y-83854743D02*
X157145714Y-83854743D01*
X158526666Y-83854743D02*
X157955238Y-83854743D01*
X158240952Y-83854743D02*
X158240952Y-82854743D01*
X158240952Y-82854743D02*
X158145714Y-82997600D01*
X158145714Y-82997600D02*
X158050476Y-83092838D01*
X158050476Y-83092838D02*
X157955238Y-83140457D01*
X139341689Y-67079029D02*
X139817879Y-67079029D01*
X139246451Y-67364744D02*
X139579784Y-66364744D01*
X139579784Y-66364744D02*
X139913117Y-67364744D01*
X140246451Y-66698077D02*
X140246451Y-67364744D01*
X140246451Y-66793315D02*
X140294070Y-66745696D01*
X140294070Y-66745696D02*
X140389308Y-66698077D01*
X140389308Y-66698077D02*
X140532165Y-66698077D01*
X140532165Y-66698077D02*
X140627403Y-66745696D01*
X140627403Y-66745696D02*
X140675022Y-66840934D01*
X140675022Y-66840934D02*
X140675022Y-67364744D01*
X141008356Y-66698077D02*
X141389308Y-66698077D01*
X141151213Y-66364744D02*
X141151213Y-67221886D01*
X141151213Y-67221886D02*
X141198832Y-67317125D01*
X141198832Y-67317125D02*
X141294070Y-67364744D01*
X141294070Y-67364744D02*
X141389308Y-67364744D01*
X142103594Y-67317125D02*
X142008356Y-67364744D01*
X142008356Y-67364744D02*
X141817880Y-67364744D01*
X141817880Y-67364744D02*
X141722642Y-67317125D01*
X141722642Y-67317125D02*
X141675023Y-67221886D01*
X141675023Y-67221886D02*
X141675023Y-66840934D01*
X141675023Y-66840934D02*
X141722642Y-66745696D01*
X141722642Y-66745696D02*
X141817880Y-66698077D01*
X141817880Y-66698077D02*
X142008356Y-66698077D01*
X142008356Y-66698077D02*
X142103594Y-66745696D01*
X142103594Y-66745696D02*
X142151213Y-66840934D01*
X142151213Y-66840934D02*
X142151213Y-66936172D01*
X142151213Y-66936172D02*
X141675023Y-67031410D01*
X142579785Y-66698077D02*
X142579785Y-67364744D01*
X142579785Y-66793315D02*
X142627404Y-66745696D01*
X142627404Y-66745696D02*
X142722642Y-66698077D01*
X142722642Y-66698077D02*
X142865499Y-66698077D01*
X142865499Y-66698077D02*
X142960737Y-66745696D01*
X142960737Y-66745696D02*
X143008356Y-66840934D01*
X143008356Y-66840934D02*
X143008356Y-67364744D01*
X143484547Y-66698077D02*
X143484547Y-67364744D01*
X143484547Y-66793315D02*
X143532166Y-66745696D01*
X143532166Y-66745696D02*
X143627404Y-66698077D01*
X143627404Y-66698077D02*
X143770261Y-66698077D01*
X143770261Y-66698077D02*
X143865499Y-66745696D01*
X143865499Y-66745696D02*
X143913118Y-66840934D01*
X143913118Y-66840934D02*
X143913118Y-67364744D01*
X144817880Y-67364744D02*
X144817880Y-66840934D01*
X144817880Y-66840934D02*
X144770261Y-66745696D01*
X144770261Y-66745696D02*
X144675023Y-66698077D01*
X144675023Y-66698077D02*
X144484547Y-66698077D01*
X144484547Y-66698077D02*
X144389309Y-66745696D01*
X144817880Y-67317125D02*
X144722642Y-67364744D01*
X144722642Y-67364744D02*
X144484547Y-67364744D01*
X144484547Y-67364744D02*
X144389309Y-67317125D01*
X144389309Y-67317125D02*
X144341690Y-67221886D01*
X144341690Y-67221886D02*
X144341690Y-67126648D01*
X144341690Y-67126648D02*
X144389309Y-67031410D01*
X144389309Y-67031410D02*
X144484547Y-66983791D01*
X144484547Y-66983791D02*
X144722642Y-66983791D01*
X144722642Y-66983791D02*
X144817880Y-66936172D01*
X146008357Y-67079029D02*
X146484547Y-67079029D01*
X145913119Y-67364744D02*
X146246452Y-66364744D01*
X146246452Y-66364744D02*
X146579785Y-67364744D01*
X146913119Y-67364744D02*
X146913119Y-66698077D01*
X146913119Y-66888553D02*
X146960738Y-66793315D01*
X146960738Y-66793315D02*
X147008357Y-66745696D01*
X147008357Y-66745696D02*
X147103595Y-66698077D01*
X147103595Y-66698077D02*
X147198833Y-66698077D01*
X147913119Y-67317125D02*
X147817881Y-67364744D01*
X147817881Y-67364744D02*
X147627405Y-67364744D01*
X147627405Y-67364744D02*
X147532167Y-67317125D01*
X147532167Y-67317125D02*
X147484548Y-67221886D01*
X147484548Y-67221886D02*
X147484548Y-66840934D01*
X147484548Y-66840934D02*
X147532167Y-66745696D01*
X147532167Y-66745696D02*
X147627405Y-66698077D01*
X147627405Y-66698077D02*
X147817881Y-66698077D01*
X147817881Y-66698077D02*
X147913119Y-66745696D01*
X147913119Y-66745696D02*
X147960738Y-66840934D01*
X147960738Y-66840934D02*
X147960738Y-66936172D01*
X147960738Y-66936172D02*
X147484548Y-67031410D01*
X148817881Y-67364744D02*
X148817881Y-66840934D01*
X148817881Y-66840934D02*
X148770262Y-66745696D01*
X148770262Y-66745696D02*
X148675024Y-66698077D01*
X148675024Y-66698077D02*
X148484548Y-66698077D01*
X148484548Y-66698077D02*
X148389310Y-66745696D01*
X148817881Y-67317125D02*
X148722643Y-67364744D01*
X148722643Y-67364744D02*
X148484548Y-67364744D01*
X148484548Y-67364744D02*
X148389310Y-67317125D01*
X148389310Y-67317125D02*
X148341691Y-67221886D01*
X148341691Y-67221886D02*
X148341691Y-67126648D01*
X148341691Y-67126648D02*
X148389310Y-67031410D01*
X148389310Y-67031410D02*
X148484548Y-66983791D01*
X148484548Y-66983791D02*
X148722643Y-66983791D01*
X148722643Y-66983791D02*
X148817881Y-66936172D01*
D11*
%TO.C,SW2*%
X143295000Y-83964924D02*
X143295000Y-84514924D01*
X143295000Y-83964924D02*
X146995000Y-83964924D01*
X143295000Y-87064924D02*
X144157501Y-87064924D01*
X144245000Y-87714924D02*
X146026250Y-87714924D01*
X146132499Y-87064924D02*
X146995000Y-87064924D01*
X146995000Y-83964924D02*
X146995000Y-84514924D01*
%TO.C,C2*%
X136218595Y-71542761D02*
X136218595Y-71327089D01*
X136938595Y-71542761D02*
X136938595Y-71327089D01*
%TO.C,C5*%
X136218595Y-78077090D02*
X136218595Y-78292762D01*
X136938595Y-78077090D02*
X136938595Y-78292762D01*
%TO.C,J1*%
X153279999Y-83254924D02*
X153280000Y-81844924D01*
X154100000Y-79174923D02*
X154100000Y-79324923D01*
X154900000Y-79174924D02*
X154100000Y-79174923D01*
X162440001Y-83254924D02*
X162440000Y-81844924D01*
%TO.C,C4*%
X120727836Y-82299923D02*
X120512164Y-82299923D01*
X120727836Y-83019923D02*
X120512164Y-83019923D01*
%TO.C,SW1*%
X137325000Y-83959924D02*
X137325000Y-84509924D01*
X137325000Y-83959924D02*
X141025000Y-83959924D01*
X137325000Y-87059924D02*
X138187501Y-87059924D01*
X138275000Y-87709924D02*
X140056250Y-87709924D01*
X140162499Y-87059924D02*
X141025000Y-87059924D01*
X141025000Y-83959924D02*
X141025000Y-84509924D01*
%TO.C,C1*%
X136218595Y-73772763D02*
X136218595Y-73557091D01*
X136938595Y-73772763D02*
X136938595Y-73557091D01*
%TO.C,U1*%
X137303595Y-80459925D02*
X137303595Y-81259926D01*
X137303595Y-81259926D02*
X138103595Y-81259925D01*
X137503595Y-64459925D02*
X150703595Y-64459925D01*
X137503595Y-69859925D02*
X150703595Y-69859925D01*
X137503595Y-81059925D02*
X137503595Y-64459925D01*
X138178595Y-64259925D02*
X137328595Y-64259925D01*
X150153595Y-64259924D02*
X150903595Y-64259924D01*
X150703595Y-64459925D02*
X150703595Y-81059925D01*
X150703595Y-81059925D02*
X137503595Y-81059925D01*
X150903595Y-64259924D02*
X150903596Y-64859925D01*
X150903595Y-80459925D02*
X150903595Y-81259926D01*
X150903595Y-81259926D02*
X150103595Y-81259925D01*
%TO.C,D2*%
X112109999Y-74194923D02*
X112109999Y-74844923D01*
X112109999Y-74194923D02*
X114949999Y-74194923D01*
X112109999Y-76494923D02*
X114949999Y-76494923D01*
D12*
%TO.C,G\u002A\u002A\u002A*%
G36*
X128887376Y-69435839D02*
G01*
X130139158Y-69444307D01*
X130139159Y-72194625D01*
X128885337Y-72203094D01*
X127631515Y-72211563D01*
X127629981Y-71280929D01*
X127628926Y-71022453D01*
X127626734Y-70767833D01*
X127623594Y-70529265D01*
X127619699Y-70318944D01*
X127615238Y-70149064D01*
X127610451Y-70032667D01*
X127604720Y-69876738D01*
X127604582Y-69727707D01*
X127609855Y-69609013D01*
X127614024Y-69571206D01*
X127635594Y-69427372D01*
X128887376Y-69435839D01*
G37*
G36*
X130139158Y-79863160D02*
G01*
X128906467Y-79872443D01*
X128577779Y-79874493D01*
X128308498Y-79875128D01*
X128093331Y-79874211D01*
X127926984Y-79871609D01*
X127804163Y-79867186D01*
X127719575Y-79860805D01*
X127667926Y-79852331D01*
X127643923Y-79841628D01*
X127642572Y-79840086D01*
X127634859Y-79797543D01*
X127628171Y-79694747D01*
X127622602Y-79536156D01*
X127618245Y-79326222D01*
X127615194Y-79069403D01*
X127613544Y-78770153D01*
X127613352Y-78455644D01*
X127615337Y-77112842D01*
X128885685Y-77104377D01*
X130156032Y-77095912D01*
X130139158Y-79863160D01*
G37*
G36*
X126693171Y-72210804D02*
G01*
X126084267Y-72210804D01*
X125815911Y-72213189D01*
X125602840Y-72221480D01*
X125435764Y-72237376D01*
X125305389Y-72262578D01*
X125202427Y-72298788D01*
X125117585Y-72347705D01*
X125054043Y-72399384D01*
X124945146Y-72518010D01*
X124869337Y-72650578D01*
X124821228Y-72811577D01*
X124795430Y-73015496D01*
X124790305Y-73108514D01*
X124776801Y-73439982D01*
X127457980Y-73448259D01*
X130139159Y-73456536D01*
X130139158Y-75850931D01*
X127469732Y-75867109D01*
X124800305Y-75883288D01*
X124800819Y-76206855D01*
X124802768Y-76361332D01*
X124810390Y-76470151D01*
X124827225Y-76552328D01*
X124856813Y-76626884D01*
X124891146Y-76692205D01*
X125023160Y-76867945D01*
X125193930Y-76993243D01*
X125398031Y-77064136D01*
X125400937Y-77064692D01*
X125490260Y-77075422D01*
X125629303Y-77084620D01*
X125803079Y-77091628D01*
X125996600Y-77095792D01*
X126131344Y-77096663D01*
X126693171Y-77096663D01*
X126693171Y-78469913D01*
X126692618Y-78761437D01*
X126691037Y-79032332D01*
X126688546Y-79275881D01*
X126685264Y-79485370D01*
X126681306Y-79654077D01*
X126676793Y-79775288D01*
X126671840Y-79842285D01*
X126668904Y-79853626D01*
X126629937Y-79855956D01*
X126537621Y-79855729D01*
X126403260Y-79853142D01*
X126238159Y-79848392D01*
X126110751Y-79843901D01*
X125592740Y-79803244D01*
X125118388Y-79720046D01*
X124679838Y-79590926D01*
X124269229Y-79412504D01*
X123878704Y-79181399D01*
X123500402Y-78894233D01*
X123148691Y-78569927D01*
X122923305Y-78334014D01*
X122741199Y-78116986D01*
X122590893Y-77903248D01*
X122460904Y-77677206D01*
X122397544Y-77549657D01*
X122321901Y-77383427D01*
X122261445Y-77231246D01*
X122210878Y-77075857D01*
X122164908Y-76900004D01*
X122118236Y-76686432D01*
X122091434Y-76552190D01*
X122074696Y-76464202D01*
X122060698Y-76381998D01*
X122049194Y-76298975D01*
X122039940Y-76208533D01*
X122032693Y-76104071D01*
X122027208Y-75978990D01*
X122023241Y-75826688D01*
X122020548Y-75640565D01*
X122018885Y-75414021D01*
X122018008Y-75140454D01*
X122017673Y-74813265D01*
X122017630Y-74556663D01*
X122017630Y-72938829D01*
X122109789Y-72537484D01*
X122217763Y-72141907D01*
X122352838Y-71791430D01*
X122523672Y-71469120D01*
X122738919Y-71158049D01*
X122937528Y-70918748D01*
X123291970Y-70556838D01*
X123669448Y-70248753D01*
X124074036Y-69992684D01*
X124509809Y-69786816D01*
X124980843Y-69629335D01*
X125491211Y-69518428D01*
X126044987Y-69452282D01*
X126262820Y-69438735D01*
X126693171Y-69418096D01*
X126693171Y-72210804D01*
G37*
G36*
X126779677Y-64125387D02*
G01*
X127256242Y-64126468D01*
X127790106Y-64128017D01*
X128384861Y-64129931D01*
X128425518Y-64130065D01*
X132274700Y-64142764D01*
X132646802Y-64225138D01*
X133040266Y-64330242D01*
X133389331Y-64464297D01*
X133710784Y-64635190D01*
X134021413Y-64850801D01*
X134083638Y-64899920D01*
X134420999Y-65204022D01*
X134715182Y-65536555D01*
X134960313Y-65889419D01*
X135150517Y-66254511D01*
X135243631Y-66499849D01*
X135285844Y-66634496D01*
X135316958Y-66746756D01*
X135341066Y-66856293D01*
X135362258Y-66982774D01*
X135384626Y-67145866D01*
X135395085Y-67227874D01*
X135398802Y-67289651D01*
X135402405Y-67413363D01*
X135405875Y-67596232D01*
X135409195Y-67835479D01*
X135412349Y-68128326D01*
X135415319Y-68471994D01*
X135418086Y-68863706D01*
X135420636Y-69300682D01*
X135422949Y-69780144D01*
X135425009Y-70299313D01*
X135426797Y-70855413D01*
X135428297Y-71445663D01*
X135429494Y-72067286D01*
X135430367Y-72717504D01*
X135430568Y-72922651D01*
X135431182Y-73618350D01*
X135431701Y-74252327D01*
X135432096Y-74827570D01*
X135432329Y-75347070D01*
X135432370Y-75813816D01*
X135432187Y-76230799D01*
X135431745Y-76601009D01*
X135431012Y-76927436D01*
X135429956Y-77213069D01*
X135428545Y-77460899D01*
X135426744Y-77673915D01*
X135424522Y-77855110D01*
X135421846Y-78007471D01*
X135418683Y-78133987D01*
X135415000Y-78237652D01*
X135410766Y-78321454D01*
X135405945Y-78388382D01*
X135400508Y-78441427D01*
X135394419Y-78483578D01*
X135387648Y-78517828D01*
X135380160Y-78547163D01*
X135371924Y-78574576D01*
X135368604Y-78585071D01*
X135256784Y-78857209D01*
X135104029Y-79112000D01*
X134923273Y-79328654D01*
X134880507Y-79369617D01*
X134715746Y-79510861D01*
X134564407Y-79615518D01*
X134401145Y-79698812D01*
X134208611Y-79773177D01*
X133957247Y-79861100D01*
X132598267Y-79866712D01*
X132304653Y-79867570D01*
X132028612Y-79867698D01*
X131777424Y-79867141D01*
X131558369Y-79865949D01*
X131378728Y-79864165D01*
X131245781Y-79861836D01*
X131166807Y-79859008D01*
X131150305Y-79857504D01*
X131061324Y-79842683D01*
X131061323Y-77104131D01*
X131603299Y-77090015D01*
X131832316Y-77082344D01*
X132008150Y-77070988D01*
X132142327Y-77053158D01*
X132246372Y-77026071D01*
X132331808Y-76986937D01*
X132410161Y-76932969D01*
X132472665Y-76879778D01*
X132518522Y-76839164D01*
X132557609Y-76802499D01*
X132590493Y-76764533D01*
X132617737Y-76720016D01*
X132639907Y-76663699D01*
X132657566Y-76590332D01*
X132671280Y-76494665D01*
X132681616Y-76371447D01*
X132689136Y-76215430D01*
X132694405Y-76021362D01*
X132697990Y-75783996D01*
X132700454Y-75498079D01*
X132702363Y-75158364D01*
X132704281Y-74759599D01*
X132704448Y-74725702D01*
X132706032Y-74279854D01*
X132706113Y-73887734D01*
X132704712Y-73551017D01*
X132701849Y-73271381D01*
X132697547Y-73050502D01*
X132691824Y-72890056D01*
X132684701Y-72791722D01*
X132680250Y-72764921D01*
X132596093Y-72570543D01*
X132456837Y-72409439D01*
X132341349Y-72325059D01*
X132281746Y-72289323D01*
X132228323Y-72263210D01*
X132169389Y-72244838D01*
X132093263Y-72232333D01*
X131988256Y-72223815D01*
X131842681Y-72217408D01*
X131644853Y-72211235D01*
X131630113Y-72210803D01*
X131077502Y-72194625D01*
X131077502Y-69444308D01*
X131886420Y-69428128D01*
X132695337Y-69411950D01*
X132691430Y-68861886D01*
X132689215Y-68654670D01*
X132684879Y-68498082D01*
X132676835Y-68378042D01*
X132663488Y-68280466D01*
X132643250Y-68191273D01*
X132614531Y-68096382D01*
X132600073Y-68052969D01*
X132471067Y-67765853D01*
X132291034Y-67505972D01*
X132068904Y-67282937D01*
X131813605Y-67106356D01*
X131645473Y-67025589D01*
X131465783Y-66952842D01*
X127906547Y-66936663D01*
X124347311Y-66920485D01*
X124142535Y-66846481D01*
X123862695Y-66719556D01*
X123634110Y-66557018D01*
X123451044Y-66352956D01*
X123307758Y-66101462D01*
X123233439Y-65910359D01*
X123176732Y-65642822D01*
X123179604Y-65372675D01*
X123237922Y-65108646D01*
X123347554Y-64859468D01*
X123504367Y-64633870D01*
X123704227Y-64440586D01*
X123943005Y-64288345D01*
X124017563Y-64253708D01*
X124065638Y-64233629D01*
X124113564Y-64215627D01*
X124164935Y-64199602D01*
X124223338Y-64185454D01*
X124292364Y-64173083D01*
X124375605Y-64162385D01*
X124476649Y-64153262D01*
X124599089Y-64145613D01*
X124746514Y-64139337D01*
X124922514Y-64134333D01*
X125130681Y-64130501D01*
X125374605Y-64127739D01*
X125657876Y-64125948D01*
X125984085Y-64125025D01*
X126356822Y-64124872D01*
X126779677Y-64125387D01*
G37*
D11*
%TO.C,R2*%
X163416140Y-76079923D02*
X163108858Y-76079923D01*
X163416140Y-76839923D02*
X163108858Y-76839923D01*
%TO.C,R1*%
X136198595Y-75781285D02*
X136198595Y-76088567D01*
X136958595Y-75781285D02*
X136958595Y-76088567D01*
%TO.C,R4*%
X148903641Y-81654924D02*
X148596359Y-81654924D01*
X148903641Y-82414924D02*
X148596359Y-82414924D01*
%TO.C,U2*%
X119719999Y-81059925D02*
X119719999Y-79759925D01*
X121520000Y-79509925D02*
X121520001Y-81059925D01*
%TO.C,Q1*%
X166600000Y-77424924D02*
X164925001Y-77424925D01*
X166600000Y-77424924D02*
X167250000Y-77424925D01*
X166600000Y-80544926D02*
X165950000Y-80544925D01*
X166600000Y-80544926D02*
X167250000Y-80544925D01*
%TO.C,R3*%
X146596359Y-81654924D02*
X146903641Y-81654924D01*
X146596359Y-82414924D02*
X146903641Y-82414924D01*
%TO.C,D1*%
X165500001Y-73849925D02*
X165500001Y-76509925D01*
X167200001Y-73849925D02*
X165500001Y-73849925D01*
X167200001Y-73849925D02*
X167200001Y-76509925D01*
%TO.C,R6*%
X159578642Y-77779925D02*
X159271360Y-77779925D01*
X159578642Y-78539925D02*
X159271360Y-78539925D01*
%TO.C,TP3*%
X154353595Y-66734924D02*
G75*
G02*
X152953595Y-66734924I-700000J0D01*
G01*
X152953595Y-66734924D02*
G75*
G02*
X154353595Y-66734924I700000J0D01*
G01*
%TO.C,R5*%
X155203640Y-77629923D02*
X154896358Y-77629923D01*
X155203640Y-78389923D02*
X154896358Y-78389923D01*
%TO.C,C7*%
X157324847Y-73758607D02*
X157324847Y-73477445D01*
X158344847Y-73758607D02*
X158344847Y-73477445D01*
%TO.C,C6*%
X163365480Y-73950609D02*
X163365480Y-73669447D01*
X164385480Y-73950609D02*
X164385480Y-73669447D01*
%TO.C,C3*%
X115754999Y-75237087D02*
X115754999Y-75452759D01*
X116474999Y-75237087D02*
X116474999Y-75452759D01*
%TO.C,TP5*%
X154353596Y-69834925D02*
G75*
G02*
X152953596Y-69834925I-700000J0D01*
G01*
X152953596Y-69834925D02*
G75*
G02*
X154353596Y-69834925I700000J0D01*
G01*
%TO.C,U4*%
X160804914Y-72070536D02*
X160004914Y-72070537D01*
X160804914Y-72070536D02*
X161604914Y-72070537D01*
X160804914Y-75190538D02*
X160004914Y-75190537D01*
X160804914Y-75190538D02*
X162604914Y-75190537D01*
%TD*%
%LPC*%
D13*
%TO.C,SW2*%
X145145000Y-86589924D03*
X145145000Y-84764924D03*
D14*
X146945000Y-86314924D03*
X143345000Y-86314924D03*
X146945000Y-85014924D03*
X143345000Y-85014924D03*
%TD*%
D15*
%TO.C,C2*%
X136578595Y-71914925D03*
X136578595Y-70954925D03*
%TD*%
D16*
%TO.C,C5*%
X136578595Y-77704926D03*
X136578595Y-78664926D03*
%TD*%
D17*
%TO.C,J1*%
X154970000Y-81084924D03*
X160750000Y-81084924D03*
D18*
X154660000Y-80009924D03*
X155460000Y-80009924D03*
D19*
X156610000Y-80009925D03*
X157610000Y-80009924D03*
X158110000Y-80009924D03*
X159110000Y-80009925D03*
D18*
X160260000Y-80009924D03*
X161060000Y-80009924D03*
X161060000Y-80009924D03*
X160260000Y-80009924D03*
D19*
X159610000Y-80009924D03*
X158610000Y-80009924D03*
X157110000Y-80009924D03*
X156110000Y-80009924D03*
D18*
X155460000Y-80009924D03*
X154660000Y-80009924D03*
D20*
X152750000Y-80584924D03*
X152750000Y-84514924D03*
X162970000Y-80584924D03*
X162970000Y-84514924D03*
%TD*%
D21*
%TO.C,C4*%
X121100000Y-82659923D03*
X120140000Y-82659923D03*
%TD*%
D13*
%TO.C,SW1*%
X139175000Y-86584924D03*
X139175000Y-84759924D03*
D14*
X140975000Y-86309924D03*
X137375000Y-86309924D03*
X140975000Y-85009924D03*
X137375000Y-85009924D03*
%TD*%
D15*
%TO.C,C1*%
X136578595Y-74144927D03*
X136578595Y-73184927D03*
%TD*%
D22*
%TO.C,U1*%
X138203595Y-71459925D03*
X138203595Y-72259926D03*
X138203595Y-73059925D03*
X138203595Y-73859924D03*
X138203595Y-74659925D03*
X138203595Y-75459925D03*
X138203595Y-76259925D03*
X138203595Y-77059925D03*
X138203595Y-77859926D03*
X138203595Y-78659925D03*
X138203595Y-79459924D03*
D23*
X139303595Y-80359925D03*
X140103594Y-80359925D03*
X140903595Y-80359925D03*
X141703595Y-80359925D03*
X142503595Y-80359925D03*
X143303595Y-80359925D03*
X144103595Y-80359926D03*
X144903595Y-80359925D03*
X145703595Y-80359925D03*
X146503595Y-80359925D03*
X147303595Y-80359925D03*
X148103596Y-80359925D03*
X148903595Y-80359925D03*
D22*
X150003595Y-79459924D03*
X150003595Y-78659925D03*
X150003595Y-77859926D03*
X150003595Y-77059925D03*
X150003595Y-76259925D03*
X150003595Y-75459925D03*
X150003595Y-74659925D03*
X150003595Y-73859924D03*
X150003595Y-73059925D03*
X150003595Y-72259926D03*
X150003595Y-71459925D03*
D23*
X148903595Y-70559926D03*
X148103595Y-70559925D03*
X147303595Y-70559925D03*
X146503595Y-70559925D03*
X145703595Y-70559925D03*
X144903595Y-70559926D03*
X144103595Y-70559925D03*
X143303595Y-70559926D03*
X142503595Y-70559925D03*
X141703595Y-70559925D03*
X140903595Y-70559925D03*
X140103595Y-70559925D03*
X139303595Y-70559926D03*
D24*
X142128595Y-75459925D03*
X142128595Y-77434925D03*
D25*
X142128596Y-73484925D03*
D24*
X144103595Y-73484924D03*
X144103595Y-75459925D03*
X144103595Y-77434925D03*
X146078594Y-73484925D03*
X146078595Y-75459925D03*
X146078595Y-77434925D03*
D26*
X150053595Y-70509925D03*
X150053595Y-80409925D03*
X138153595Y-80409925D03*
X138153595Y-70509925D03*
%TD*%
%TO.C,D2*%
X112614999Y-74794923D03*
X112614999Y-75894923D03*
X114444999Y-75894923D03*
X114444999Y-74794923D03*
%TD*%
D27*
%TO.C,R2*%
X163772498Y-76459923D03*
X162752500Y-76459923D03*
%TD*%
D28*
%TO.C,R1*%
X136578595Y-75424927D03*
X136578595Y-76444925D03*
%TD*%
D27*
%TO.C,R4*%
X149259999Y-82034924D03*
X148240001Y-82034924D03*
%TD*%
D29*
%TO.C,U2*%
X121119999Y-79659925D03*
X120620000Y-79659925D03*
X120120001Y-79659925D03*
X120120001Y-81159925D03*
X120620000Y-81159925D03*
X121119999Y-81159925D03*
%TD*%
D30*
%TO.C,Q1*%
X165662500Y-78034925D03*
X165662500Y-79934925D03*
X167537501Y-78984925D03*
%TD*%
D31*
%TO.C,R3*%
X146240001Y-82034924D03*
X147259999Y-82034924D03*
%TD*%
D32*
%TO.C,D1*%
X166350001Y-74409925D03*
X166350001Y-76509925D03*
%TD*%
D27*
%TO.C,R6*%
X159935000Y-78159925D03*
X158915002Y-78159925D03*
%TD*%
D33*
%TO.C,TP3*%
X153653595Y-66734924D03*
%TD*%
D27*
%TO.C,R5*%
X155559998Y-78009923D03*
X154540000Y-78009923D03*
%TD*%
D34*
%TO.C,C7*%
X157834847Y-74393026D03*
X157834847Y-72843026D03*
%TD*%
%TO.C,C6*%
X163875480Y-74585028D03*
X163875480Y-73035028D03*
%TD*%
D16*
%TO.C,C3*%
X116114999Y-74864923D03*
X116114999Y-75824923D03*
%TD*%
D33*
%TO.C,TP5*%
X153653596Y-69834925D03*
%TD*%
D35*
%TO.C,U4*%
X161942414Y-74580536D03*
X161942414Y-73630537D03*
X161942414Y-72680538D03*
X159667414Y-72680538D03*
X159667414Y-74580536D03*
%TD*%
D36*
%TO.C,BT2*%
X115650000Y-85834924D03*
%TD*%
%LPD*%
M02*
