M48
; DRILL file {KiCad 9.0.1} date 2025-08-28T21:03:41+1000
; FORMAT={-:-/ absolute / inch / decimal}
; #@! TF.CreationDate,2025-08-28T21:03:41+10:00
; #@! TF.GenerationSoftware,Kicad,Pcbnew,9.0.1
; #@! TF.FileFunction,Plated,1,2,PTH
FMAT,2
INCH
; #@! TA.AperFunction,Plated,PTH,ViaDrill
T1C0.0118
; #@! TA.AperFunction,Plated,PTH,ViaDrill
T2C0.0157
%
G90
G05
T1
X4.4331Y-3.0152
X4.6004Y-2.9856
X4.6988Y-3.2543
X4.748Y-3.1008
X5.3445Y-2.9187
X5.3446Y-2.8823
X5.3492Y-3.0968
X5.3776Y-3.0341
X5.4085Y-3.398
X5.4095Y-3.3086
X5.4838Y-3.1171
X5.4961Y-2.9108
X5.5179Y-2.8232
X5.5179Y-2.8705
X5.5474Y-3.1274
X5.5508Y-3.3086
X5.5966Y-2.8941
X5.5966Y-2.9728
X5.5966Y-3.0476
X5.6442Y-3.3092
X5.6714Y-2.9728
X5.6714Y-3.0476
X5.6714Y-2.8941
X5.7501Y-2.8941
X5.7501Y-2.9728
X5.7501Y-3.0476
X5.7852Y-3.3982
X5.8218Y-3.3466
X5.8309Y-2.8213
X5.8309Y-3.1992
X5.9499Y-3.1658
X6.0013Y-2.6274
X6.062Y-3.0703
X6.1791Y-2.8675
X6.3022Y-3.0496
X6.3676Y-3.0102
X6.4518Y-2.8301
X6.5797Y-3.0752
X6.5817Y-3.1421
T2
X4.877Y-3.2189
X4.8799Y-3.1362
X5.7067Y-3.2189
X5.939Y-3.214
X6.0955Y-3.3272
X6.122Y-3.1096
X6.3125Y-3.1141
X6.3327Y-3.3291
X6.3602Y-3.2366
M30
